{"glyphs":{"0":{"ha":932,"x_min":0,"x_max":0,"o":"m 83 236 b 475 17 156 82 310 17 b 711 99 567 17 642 38 b 731 115 719 107 717 113 b 890 572 846 243 890 400 b 775 874 890 674 858 806 b 728 911 771 896 743 901 b 682 936 707 926 706 929 b 536 960 632 953 589 960 l 492 960 b 468 953 489 958 472 953 b 443 950 467 953 446 951 b 396 935 439 949 401 935 b 354 935 392 933 358 935 b 228 864 315 932 260 883 l 172 810 l 153 788 b 42 428 78 686 42 554 b 58 296 42 382 46 342 b 83 236 63 283 88 246 z m 347 438 b 457 679 347 524 376 632 l 504 706 b 533 708 514 710 521 708 b 551 707 535 708 549 707 b 603 615 582 692 603 647 b 442 331 603 529 565 331 b 347 438 385 331 347 386 z "},"1":{"ha":635,"x_min":0,"x_max":0,"o":"m 281 24 l 415 24 b 524 14 425 24 513 15 l 542 14 b 578 69 585 14 576 29 b 586 311 579 93 586 288 l 586 314 b 593 633 590 421 593 526 l 593 749 b 590 894 593 769 592 872 b 586 913 590 897 588 910 b 542 940 575 951 567 925 l 475 940 b 322 928 451 939 346 931 l 321 925 b 247 794 299 882 272 835 b 204 731 244 788 214 743 b 160 676 193 713 164 694 b 58 589 132 647 93 611 b 42 575 56 585 42 585 b 86 506 42 543 67 528 b 157 424 111 479 131 449 b 172 421 161 419 167 421 b 281 475 218 421 251 443 l 296 490 l 299 490 l 299 378 l 275 38 b 281 24 275 32 274 25 z "},"2":{"ha":822,"x_min":0,"x_max":0,"o":"m 43 -17 b 72 -22 46 -25 63 -22 b 135 -18 93 -22 113 -17 l 310 -4 b 481 -1 367 -7 424 -1 l 568 -1 b 667 -7 600 -7 636 -4 b 717 -12 672 -7 711 -12 l 729 -12 b 768 -7 738 -12 765 -17 b 768 113 767 11 767 94 b 781 217 768 121 778 196 l 781 228 b 719 249 781 253 732 249 b 506 238 647 249 578 238 b 482 239 500 238 485 239 l 481 242 b 486 251 479 242 483 249 b 594 378 521 294 560 335 b 738 618 653 451 701 532 b 763 711 763 633 763 686 b 674 900 763 799 740 843 b 665 906 672 900 667 904 b 610 933 646 917 628 922 b 604 936 610 935 606 936 b 467 961 558 951 515 961 b 82 671 235 961 100 807 b 214 506 79 650 186 506 l 217 506 b 222 510 217 506 222 508 l 279 567 b 453 664 335 599 383 664 b 486 636 467 664 486 654 b 371 490 486 600 397 521 b 331 454 360 478 342 467 b 189 299 285 403 232 356 b 79 133 147 246 115 194 b 56 85 75 126 58 92 b 42 3 61 57 42 32 b 43 -17 42 1 42 -12 z "},"3":{"ha":858,"x_min":0,"x_max":0,"o":"m 42 203 b 92 124 42 186 79 139 b 110 100 96 117 110 101 b 353 -10 168 32 265 -10 b 556 44 428 -10 493 3 b 607 72 572 56 590 60 b 653 117 624 85 639 101 b 753 358 721 193 753 256 b 610 567 753 469 736 558 b 607 569 610 567 607 568 b 610 575 607 569 610 574 b 774 825 663 663 724 733 b 817 919 790 854 817 883 b 697 961 817 961 739 961 b 690 961 694 961 692 961 l 679 961 b 279 940 547 961 411 956 b 269 936 278 940 271 938 l 156 921 b 85 900 143 917 83 910 l 85 782 b 89 688 85 768 88 703 b 97 679 89 683 93 679 b 124 678 101 679 119 678 b 322 700 189 678 257 688 b 331 701 325 700 328 701 b 424 715 360 708 392 715 l 440 715 l 422 697 b 361 651 415 692 368 656 b 236 542 335 631 236 569 b 238 536 236 540 238 536 b 313 490 254 513 290 506 b 343 469 317 489 340 471 b 461 339 396 436 461 411 b 450 278 461 319 460 294 b 413 251 443 269 426 251 b 286 321 368 251 319 293 l 279 326 b 165 364 251 350 200 364 b 42 203 118 364 42 232 z "},"6":{"ha":779,"x_min":0,"x_max":0,"o":"m 42 314 b 385 11 42 72 165 11 b 713 208 531 11 669 50 b 738 375 726 263 738 318 b 574 546 738 467 663 533 l 522 546 b 446 542 503 546 467 547 b 378 524 435 540 389 526 l 376 524 l 376 531 b 406 621 376 535 397 599 b 472 764 425 669 450 718 b 554 906 497 813 536 856 l 554 910 b 533 925 554 921 543 924 b 494 931 524 925 497 931 b 372 936 482 931 385 935 b 294 946 365 938 301 946 l 289 946 b 228 876 265 946 240 896 l 185 810 b 182 800 185 807 182 801 b 107 640 151 747 129 699 b 42 314 67 538 42 422 z m 318 275 l 318 306 b 429 340 343 335 394 340 b 485 303 454 340 476 325 b 486 285 485 300 486 288 b 400 179 486 226 449 200 b 389 178 399 179 390 178 b 318 275 332 178 318 226 z "},"7":{"ha":840,"x_min":0,"x_max":0,"o":"m 140 39 b 207 29 156 35 188 29 l 425 29 l 433 39 l 589 403 b 597 428 590 407 593 421 l 779 889 l 799 928 l 799 931 b 767 951 799 946 781 951 l 715 951 b 653 956 710 951 658 954 l 649 956 b 567 949 642 954 575 949 l 472 949 b 221 956 389 949 304 956 l 192 956 l 90 949 b 61 913 76 935 63 933 l 42 724 l 42 721 b 69 697 42 703 54 697 b 169 694 79 697 160 694 l 176 694 b 236 700 182 694 231 700 l 367 707 b 421 706 375 707 414 706 l 421 697 l 367 589 b 258 336 350 550 274 374 b 236 285 249 319 242 303 l 136 60 l 136 51 b 140 39 136 51 135 40 z "},"8":{"ha":872,"x_min":0,"x_max":0,"o":"m 42 293 b 121 117 42 226 67 160 b 129 106 125 114 125 108 b 169 72 142 96 160 85 b 451 3 256 25 354 3 b 703 85 542 3 626 42 b 746 114 717 96 733 103 b 831 342 808 169 831 263 b 697 554 831 451 796 511 b 667 567 685 560 681 565 l 667 572 b 739 736 718 610 739 674 b 457 940 739 899 594 940 b 215 854 356 940 292 924 b 129 676 160 806 129 750 b 188 549 129 626 149 582 l 188 547 b 149 515 188 540 154 521 b 42 293 83 456 42 382 z m 346 278 b 399 393 346 325 371 357 b 403 399 400 394 401 397 l 408 406 b 419 407 411 406 418 407 b 475 392 439 407 458 396 b 549 319 515 379 549 367 b 456 190 549 268 517 190 b 346 278 418 190 346 239 z m 372 681 b 432 722 372 697 413 722 b 474 671 458 722 474 693 b 432 600 474 654 443 600 b 372 681 411 600 372 661 z "},"9":{"ha":869,"x_min":0,"x_max":0,"o":"m 161 44 b 438 14 256 31 342 14 l 458 14 b 603 133 510 35 567 94 b 654 190 611 142 647 181 b 675 218 658 194 674 214 b 715 278 690 236 701 258 b 828 667 779 399 828 528 b 753 857 828 739 800 806 b 710 897 746 864 718 892 b 694 900 708 899 696 899 b 675 910 693 900 681 907 b 667 915 675 910 668 914 b 615 925 646 925 642 921 b 597 928 613 925 600 926 b 522 943 572 933 549 943 b 90 754 381 943 183 868 b 42 604 58 714 42 656 b 67 496 42 568 49 529 b 94 460 74 485 90 474 b 294 378 149 397 214 378 b 385 388 324 378 357 381 b 446 406 397 392 432 406 l 446 403 l 418 364 l 157 106 b 121 71 144 101 121 86 b 161 44 121 50 147 54 z m 342 661 b 426 715 342 693 404 707 l 463 715 b 528 681 488 715 528 715 b 433 610 528 631 476 610 b 342 661 408 610 342 631 z "},"\u0000":{"ha":0,"x_min":0,"x_max":0,"o":""},"\r":{"ha":431,"x_min":0,"x_max":0,"o":""}," ":{"ha":431,"x_min":0,"x_max":0,"o":""},"!":{"ha":425,"x_min":0,"x_max":0,"o":"m 69 225 l 69 197 b 78 190 69 194 78 190 l 100 190 b 313 203 169 190 243 197 b 383 957 340 211 350 229 l 383 960 b 361 979 383 968 368 979 l 154 979 b 149 975 154 979 151 976 b 140 969 149 975 140 971 b 115 944 121 963 118 968 b 90 754 108 890 90 757 z m 42 64 b 276 -22 42 6 106 -28 l 283 -19 b 340 53 318 -4 340 4 b 267 129 340 93 306 124 l 207 129 b 201 129 206 129 203 129 b 42 64 147 129 42 129 z "},"\"":{"ha":664,"x_min":0,"x_max":0,"o":"m 354 696 b 429 526 354 635 339 526 b 560 665 496 526 539 611 b 583 736 564 679 582 729 b 600 796 588 749 599 789 b 621 928 604 815 619 907 b 621 947 621 931 621 946 b 619 979 621 956 622 971 b 533 1008 606 1007 558 1008 b 522 1008 531 1008 522 1008 b 431 1007 501 1008 438 1007 b 360 922 379 1004 361 968 b 354 763 358 894 354 782 b 354 696 354 760 354 713 z m 42 929 b 42 844 42 910 42 849 b 44 807 42 839 43 813 b 65 656 47 788 63 681 b 88 589 69 632 78 610 b 90 583 89 588 89 585 b 131 536 100 560 101 536 b 219 643 186 536 204 596 b 222 653 221 646 221 650 b 285 935 247 739 285 842 b 157 1014 285 1007 217 1014 b 103 1008 140 1014 119 1017 b 88 1000 101 1008 89 1001 b 49 993 82 1000 56 993 l 42 985 b 42 929 42 983 42 946 z "},"$":{"ha":739,"x_min":0,"x_max":0,"o":"m 42 -4 l 224 -12 l 224 -185 l 226 -194 l 338 -194 b 343 -192 339 -194 340 -192 b 368 -185 346 -192 367 -186 b 396 -107 396 -175 396 -147 l 396 -19 l 446 -22 b 454 -10 446 -19 454 -14 b 476 25 458 -6 475 18 b 525 225 514 92 525 144 b 458 422 525 294 500 364 b 375 561 432 458 375 513 b 385 585 375 571 379 579 l 431 629 b 483 661 450 638 465 651 b 697 785 524 685 697 746 l 697 788 b 689 838 696 792 689 833 b 683 901 688 844 683 896 l 675 932 b 640 939 671 933 647 939 b 458 922 628 942 458 917 l 457 1028 b 401 1050 451 1050 411 1050 l 390 1050 b 300 990 358 1051 307 1053 b 297 861 299 947 297 903 b 107 549 190 797 107 675 b 153 438 107 521 126 457 b 228 268 188 392 228 329 b 129 110 228 199 171 157 b 42 6 118 93 56 21 z "},"'":{"ha":353,"x_min":0,"x_max":0,"o":"m 43 696 b 118 526 43 635 28 526 b 249 665 185 526 228 611 b 272 736 253 679 271 729 b 289 796 276 749 288 789 b 310 928 293 815 308 907 b 310 947 310 931 310 946 b 308 979 310 956 311 971 b 222 1008 294 1007 247 1008 b 211 1008 219 1008 211 1008 b 119 1007 190 1008 126 1007 b 49 922 68 1004 50 968 b 43 763 47 894 43 782 b 43 696 43 760 43 713 z "},"(":{"ha":546,"x_min":0,"x_max":0,"o":"m 42 406 b 426 -21 42 179 193 -21 b 460 -19 432 -21 456 -21 b 463 -18 461 -19 461 -18 b 467 -17 464 -18 465 -17 b 504 14 481 -11 504 0 l 504 15 b 501 25 504 18 501 25 b 447 99 483 56 465 72 b 358 318 406 154 363 247 b 351 436 357 340 351 422 b 350 476 351 439 350 467 b 351 513 350 486 351 511 b 358 554 351 517 357 546 b 450 879 382 668 408 771 b 464 918 453 885 461 911 l 464 921 b 411 950 464 928 419 950 b 367 933 396 950 382 938 b 144 746 272 897 203 825 b 113 690 136 728 119 706 b 42 406 69 610 42 496 z "},")":{"ha":572,"x_min":0,"x_max":0,"o":"m 42 -11 b 61 -22 42 -18 54 -22 b 204 28 111 -22 163 0 b 244 61 217 36 233 56 l 253 63 b 292 92 261 69 285 85 b 483 360 361 163 450 267 b 531 650 517 454 531 550 l 531 685 b 521 771 531 690 524 751 b 415 918 513 838 467 878 l 400 928 b 329 943 376 936 353 935 b 151 956 303 944 178 953 l 147 956 b 119 953 143 956 124 953 b 115 926 117 943 115 936 b 164 857 115 906 153 879 l 176 825 b 221 515 214 728 221 621 b 125 118 221 376 182 243 b 81 47 113 94 96 69 b 43 -7 68 29 49 15 b 42 -11 43 -7 42 -10 z "},",":{"ha":296,"x_min":0,"x_max":0,"o":"m 42 -107 b 42 -111 42 -108 42 -110 b 68 -161 42 -129 42 -161 l 110 -161 b 125 -154 111 -161 121 -157 b 210 -12 169 -124 193 -62 l 242 86 b 254 138 247 103 254 118 b 213 188 254 165 240 178 b 164 193 206 189 171 193 l 140 193 b 86 190 119 193 107 193 b 65 182 81 190 64 188 b 58 117 64 154 64 143 l 42 -86 z "},"-":{"ha":644,"x_min":0,"x_max":0,"o":"m 42 253 l 592 253 b 596 256 593 253 594 256 b 601 321 604 269 601 308 b 597 404 601 349 599 376 b 596 439 597 414 596 439 l 590 442 l 553 442 b 467 439 528 442 492 443 l 144 439 b 99 436 138 439 106 436 b 42 401 75 435 42 432 z "},".":{"ha":339,"x_min":0,"x_max":0,"o":"m 42 101 b 113 6 42 64 76 14 b 161 0 135 0 140 0 b 297 111 219 0 297 46 b 272 167 297 131 288 154 b 140 208 232 188 186 208 l 135 208 b 121 201 133 208 122 201 b 42 101 82 185 42 149 z "},"/":{"ha":642,"x_min":0,"x_max":0,"o":"m 42 1 b 72 -19 42 -18 57 -19 l 86 -19 b 281 -15 144 -18 281 -15 l 288 -10 l 396 333 l 457 489 b 483 551 468 508 471 532 b 596 890 525 660 565 776 b 600 922 600 903 600 910 l 600 933 b 439 960 590 947 458 956 b 369 969 415 963 393 969 b 328 925 338 969 338 953 b 263 739 317 897 272 767 b 257 721 263 733 260 725 l 125 272 l 125 257 l 51 25 z "},":":{"ha":339,"x_min":0,"x_max":0,"o":"m 42 546 b 113 450 42 508 76 458 b 161 444 135 444 140 444 b 297 556 219 444 297 490 b 272 611 297 575 288 599 b 140 653 232 632 186 653 l 135 653 b 121 646 133 653 122 646 b 42 546 82 629 42 593 z m 42 101 b 113 6 42 64 76 14 b 161 0 135 0 140 0 b 297 111 219 0 297 46 b 272 167 297 131 288 154 b 140 208 232 188 186 208 l 135 208 b 121 201 133 208 122 201 b 42 101 82 185 42 149 z "},";":{"ha":339,"x_min":0,"x_max":0,"o":"m 42 546 b 113 450 42 508 76 458 b 161 444 135 444 140 444 b 297 556 219 444 297 490 b 272 611 297 575 288 599 b 140 653 232 632 186 653 l 135 653 b 121 646 133 653 122 646 b 42 546 82 629 42 593 z m 42 -107 b 42 -111 42 -108 42 -110 b 68 -161 42 -129 42 -161 l 110 -161 b 125 -154 111 -161 121 -157 b 210 -12 169 -124 193 -62 l 242 86 b 254 138 247 103 254 118 b 213 188 254 165 240 178 b 164 193 206 189 171 193 l 140 193 b 86 190 119 193 107 193 b 65 182 81 190 64 188 b 58 117 64 154 64 143 l 42 -86 z "},"?":{"ha":643,"x_min":0,"x_max":0,"o":"m 93 144 b 128 135 97 143 122 135 l 143 135 b 238 142 151 135 228 140 b 326 190 281 144 322 140 b 360 463 335 290 338 367 b 371 485 361 468 367 481 b 464 542 394 514 431 525 b 601 769 564 593 601 646 b 254 958 601 875 560 954 b 143 949 236 957 160 951 b 71 919 131 936 74 953 l 64 857 l 64 661 b 79 654 64 653 75 654 b 222 696 126 654 176 696 b 264 671 236 696 264 688 b 76 457 264 606 99 543 b 64 403 72 442 64 404 l 64 232 b 71 204 64 231 69 211 b 86 154 71 199 82 163 b 93 144 88 150 89 146 z m 42 19 b 129 -42 42 -31 90 -33 b 229 -53 164 -49 196 -53 l 239 -53 b 360 -4 279 -53 360 -54 l 360 6 b 344 38 360 8 347 33 l 336 57 b 294 75 332 71 332 72 b 244 78 285 75 250 78 l 151 78 b 103 68 149 78 114 71 b 42 19 76 63 42 50 z "},"@":{"ha":1167,"x_min":0,"x_max":0,"o":"m 156 56 b 158 50 156 54 157 50 b 185 24 161 46 181 26 b 324 -69 228 -18 268 -46 b 371 -82 340 -76 354 -75 b 382 -87 372 -82 381 -87 b 426 -99 396 -93 414 -92 b 435 -103 426 -99 433 -103 l 476 -115 b 553 -126 501 -122 526 -125 b 586 -129 564 -128 574 -124 l 722 -129 b 768 -124 733 -124 754 -125 l 799 -124 b 896 -99 822 -122 872 -106 b 901 -96 896 -99 900 -96 b 904 -86 904 -93 904 -92 b 868 17 904 -50 875 -18 l 857 67 b 854 75 857 68 854 75 b 847 78 851 78 850 78 l 843 78 b 813 69 839 76 815 69 b 636 42 754 57 696 47 b 578 33 617 39 597 33 b 506 42 554 33 529 40 b 438 67 494 54 453 64 b 385 94 417 72 403 89 l 304 151 b 190 369 246 194 197 299 l 190 408 b 229 589 190 472 199 533 b 260 639 238 606 253 622 l 301 685 b 342 715 317 692 332 701 b 344 718 342 717 344 718 b 582 793 417 760 497 793 b 914 608 707 793 868 735 b 928 564 918 597 928 567 l 928 489 b 821 376 928 451 860 376 b 757 408 799 376 769 389 l 689 519 b 654 556 675 529 668 543 b 463 619 600 601 532 619 b 310 553 418 619 310 613 b 360 436 310 529 340 436 l 397 436 b 410 443 401 440 404 443 l 413 443 b 386 401 404 426 396 415 b 354 297 369 368 354 335 b 497 182 354 215 425 182 b 606 238 543 182 574 206 b 650 299 613 247 643 299 b 707 263 650 299 690 267 b 722 260 708 261 721 260 b 819 240 760 246 776 240 b 910 254 849 240 879 246 b 935 265 917 261 926 260 b 986 293 953 272 972 281 b 1125 561 1069 351 1125 460 b 972 854 1125 701 1071 767 b 640 944 876 910 751 944 b 431 915 571 944 497 943 b 396 897 419 910 406 901 b 89 597 257 846 140 740 b 42 363 61 518 42 447 b 156 56 42 239 72 140 z m 492 349 b 539 415 492 375 517 400 l 543 415 b 557 403 550 415 557 410 b 501 335 557 381 525 335 b 492 349 493 335 492 342 z "},"A":{"ha":1063,"x_min":0,"x_max":0,"o":"m 531 333 b 550 292 542 326 546 303 l 622 22 b 807 -11 631 -7 781 -8 b 925 -17 828 -12 910 -15 b 957 -17 926 -17 949 -17 b 988 -17 965 -17 988 -17 b 1021 -3 993 -15 1021 -15 b 1004 13 1021 6 1011 11 b 943 119 989 51 964 83 b 772 413 889 219 832 315 b 756 440 769 418 758 438 l 649 667 b 468 936 590 757 538 853 b 429 974 458 946 432 974 l 424 978 b 382 981 422 978 393 981 b 375 981 381 981 376 981 b 363 974 368 981 365 982 l 104 282 b 99 263 104 276 103 268 b 42 19 71 186 42 101 b 47 -1 42 11 42 7 b 88 -1 54 -1 82 -1 b 321 13 167 -1 243 14 b 333 18 321 13 333 14 l 394 336 l 397 339 b 406 339 397 339 404 339 b 531 333 447 339 489 333 z m 429 657 b 432 660 429 657 432 660 b 433 661 432 660 433 661 b 435 660 433 661 435 660 b 458 615 439 654 454 622 b 474 511 449 606 524 511 b 400 510 463 511 411 510 b 429 657 400 560 411 610 z "},"B":{"ha":856,"x_min":0,"x_max":0,"o":"m 42 18 l 44 8 b 71 3 46 3 64 3 b 254 14 129 3 199 10 b 283 22 258 17 278 21 b 326 28 288 22 324 26 b 397 43 346 32 394 42 l 403 47 l 513 75 b 590 100 524 85 572 94 b 814 364 721 149 814 208 b 636 561 814 471 731 533 b 579 574 619 567 592 565 b 578 576 578 574 578 575 b 579 578 578 576 578 578 b 728 783 651 636 728 682 b 504 972 728 892 597 954 b 457 981 493 974 469 972 l 393 988 l 385 988 b 317 983 364 986 318 983 l 311 981 b 82 917 229 974 161 938 b 71 876 78 917 72 881 z m 289 382 b 317 396 289 390 311 396 b 368 403 329 399 364 401 l 406 403 b 532 343 447 403 532 403 b 311 214 532 268 360 214 b 299 215 308 214 299 215 l 296 221 b 289 381 296 221 290 333 z m 286 724 l 286 756 b 342 758 310 757 321 758 b 429 729 360 758 429 757 b 331 628 429 681 368 644 b 299 615 321 625 299 615 l 296 618 b 286 724 296 619 288 692 z "},"C":{"ha":917,"x_min":0,"x_max":0,"o":"m 42 356 b 256 -12 42 213 106 36 b 385 -26 297 -26 342 -26 l 396 -26 b 868 260 594 -26 761 103 b 875 281 872 267 875 274 l 875 286 b 838 333 867 299 846 319 b 792 400 832 339 796 393 l 779 415 b 738 454 768 428 749 439 l 710 454 l 651 396 b 604 354 633 386 621 369 b 381 225 553 310 447 225 b 265 343 311 225 265 276 b 483 632 265 481 353 597 b 538 644 499 635 536 644 l 632 644 l 636 672 l 636 796 b 633 939 636 818 633 918 b 592 958 631 964 613 957 b 564 963 589 958 567 963 l 525 963 l 468 953 b 424 936 456 944 438 940 b 338 899 396 926 364 914 b 42 356 144 782 42 582 z "},"D":{"ha":881,"x_min":0,"x_max":0,"o":"m 42 497 b 42 450 42 485 42 451 l 67 22 b 103 -11 68 -8 74 -11 b 264 18 156 -11 215 7 b 326 38 281 31 308 32 b 371 53 333 40 365 51 b 446 85 381 65 431 81 b 528 131 472 94 504 114 b 706 278 592 175 650 221 b 839 606 796 374 839 471 b 740 853 839 699 821 796 b 286 968 608 947 446 968 b 244 968 275 968 246 968 b 153 956 231 967 165 958 b 51 917 136 947 53 940 l 47 889 b 42 558 47 883 42 653 b 42 497 42 553 42 511 z m 324 628 b 324 694 324 647 324 694 l 340 710 b 394 729 343 714 381 728 b 418 729 394 729 410 729 b 524 694 454 729 499 726 b 550 614 539 671 550 644 b 353 286 550 483 468 347 b 333 276 347 282 333 276 l 331 278 b 326 324 329 279 328 311 b 324 628 324 428 324 525 z "},"E":{"ha":718,"x_min":0,"x_max":0,"o":"m 92 -19 b 200 -29 128 -25 164 -25 l 493 -29 b 635 -19 540 -25 588 -25 b 638 -17 635 -19 638 -17 b 644 24 644 -6 644 17 b 644 74 644 26 644 60 b 644 124 644 81 644 117 b 642 142 644 126 642 139 b 632 231 640 154 633 218 l 629 235 b 607 235 628 235 614 235 b 332 228 515 235 424 228 b 296 228 326 228 300 228 b 276 318 292 229 276 308 b 494 368 276 336 471 353 b 511 393 504 374 508 382 b 514 479 513 406 514 465 b 514 481 514 479 514 481 b 483 571 514 513 521 560 b 456 571 478 571 460 571 b 282 551 397 571 340 560 b 279 551 282 551 279 551 b 274 556 276 551 275 551 b 274 578 274 560 274 574 b 269 657 272 586 269 649 b 269 658 269 657 269 658 b 286 669 269 665 281 669 b 569 694 378 685 478 689 b 610 701 575 696 604 700 b 676 717 619 703 676 706 b 661 815 676 750 661 782 l 661 981 l 560 981 l 174 946 b 136 939 164 940 146 942 b 89 929 122 936 89 931 l 82 924 l 42 444 l 42 349 l 61 100 l 79 6 b 92 -19 75 -6 85 -15 z "},"F":{"ha":739,"x_min":0,"x_max":0,"o":"m 46 28 b 54 8 46 21 49 13 b 88 8 60 8 82 8 b 192 11 121 8 157 10 b 333 33 232 14 293 15 b 342 53 340 36 342 51 l 342 339 b 425 335 369 339 397 335 b 535 368 460 336 528 325 b 554 522 538 390 550 500 b 554 526 554 524 554 526 b 529 546 554 538 538 543 b 351 558 468 551 408 551 b 347 569 346 560 347 567 b 347 578 347 569 347 578 b 353 692 349 611 353 692 l 357 694 b 439 699 357 694 415 699 b 519 699 447 699 511 699 b 672 701 561 699 668 701 l 697 704 l 697 964 b 693 968 697 965 694 968 b 672 972 690 969 674 972 l 293 972 b 138 953 243 972 183 961 b 93 933 125 947 103 946 b 88 901 92 928 88 907 b 74 794 86 897 78 821 b 74 790 74 793 74 790 l 42 314 b 42 256 42 313 42 271 b 42 174 42 236 42 179 b 46 28 42 153 44 50 z "},"G":{"ha":988,"x_min":0,"x_max":0,"o":"m 192 100 b 228 75 203 99 218 81 b 332 35 263 57 296 46 b 339 32 335 33 336 33 b 499 14 389 14 444 14 b 510 14 503 14 506 14 b 688 38 571 14 628 22 b 726 53 697 46 717 50 b 781 75 736 57 774 72 b 942 171 819 93 921 136 b 944 200 946 178 944 192 b 944 215 944 203 944 214 b 935 286 943 222 936 278 b 929 540 928 369 926 456 b 833 571 910 571 867 568 b 793 574 825 572 796 574 b 724 575 789 574 740 575 b 661 574 707 575 664 574 b 599 568 660 574 614 569 b 503 536 572 565 521 560 b 493 501 497 528 494 511 b 492 418 492 469 492 446 b 503 307 492 381 496 343 b 521 300 508 301 514 300 b 560 314 536 300 547 310 b 714 353 607 329 661 353 b 724 343 721 353 724 351 b 724 342 724 343 724 343 b 707 260 724 326 724 265 b 690 260 706 258 692 260 b 608 235 663 256 636 239 b 549 231 585 229 572 231 b 335 386 444 231 335 267 b 376 511 335 431 356 474 b 379 514 378 511 379 513 b 392 536 381 515 390 533 b 436 581 396 540 426 569 b 576 669 476 619 525 649 b 781 743 606 682 775 724 l 821 929 b 821 935 821 931 821 933 b 660 974 814 986 683 974 b 614 968 642 969 635 971 b 440 924 556 960 496 944 b 42 393 244 851 42 603 b 49 339 42 375 44 356 b 192 100 78 242 119 169 z "},"H":{"ha":992,"x_min":0,"x_max":0,"o":"m 49 22 b 74 14 54 14 65 14 b 340 28 164 14 250 32 l 349 40 l 349 231 l 363 326 b 493 336 364 335 483 336 b 604 324 531 336 568 325 b 619 278 617 314 619 293 b 635 40 625 201 624 118 b 644 18 636 33 639 22 b 674 14 650 18 669 15 b 675 14 674 14 675 14 b 678 14 676 14 678 14 b 821 22 692 15 806 21 b 944 22 839 22 926 22 l 947 32 b 950 94 947 32 950 78 b 950 126 950 96 950 117 b 946 599 950 283 946 440 b 950 915 946 704 950 810 b 950 933 950 919 950 933 l 940 943 l 649 943 b 617 885 621 943 618 906 b 617 882 617 883 617 883 l 593 599 l 394 599 b 390 603 393 599 392 601 b 388 654 386 618 388 638 b 389 682 388 661 389 682 l 414 924 b 414 926 414 924 414 925 b 381 939 414 939 389 939 b 379 939 381 939 379 939 b 307 940 368 939 318 940 b 236 939 289 940 239 939 b 172 936 229 939 183 936 b 118 914 156 936 122 936 l 101 813 l 42 133 b 42 99 42 131 42 107 b 49 22 42 69 42 51 z "},"I":{"ha":658,"x_min":0,"x_max":0,"o":"m 42 236 l 57 35 b 101 21 58 21 89 21 b 104 21 103 21 103 21 l 107 21 b 193 31 136 21 164 29 b 461 36 282 36 372 36 l 575 36 l 581 43 b 582 72 581 43 582 64 b 578 246 582 132 581 183 b 542 271 576 264 554 269 l 467 278 l 464 279 l 464 719 l 467 724 l 535 724 b 599 738 551 724 586 721 b 615 899 606 792 615 844 b 617 958 615 904 625 954 l 586 974 b 306 982 429 981 368 982 b 88 969 231 982 163 974 b 64 960 79 969 67 972 b 61 939 63 956 61 940 l 61 769 b 88 738 61 750 69 738 b 208 760 128 738 174 751 l 214 760 b 201 675 214 732 204 703 b 193 468 199 628 193 483 b 193 279 192 440 192 308 l 189 274 b 144 271 189 274 158 271 l 122 271 b 57 264 113 269 67 267 b 42 236 46 260 42 247 z "},"J":{"ha":763,"x_min":0,"x_max":0,"o":"m 43 300 b 83 172 43 256 63 211 b 339 33 139 69 229 33 b 390 35 349 33 383 35 b 504 76 429 49 469 56 b 721 597 676 178 721 418 b 719 676 721 617 721 674 b 714 747 719 686 715 736 b 693 896 708 786 693 889 l 683 929 b 658 942 681 938 664 940 l 632 942 b 390 929 551 942 469 938 b 372 910 381 925 372 921 b 397 797 372 871 393 836 l 421 565 l 421 540 b 399 369 421 482 414 426 b 354 300 394 350 381 300 b 308 375 324 300 313 351 b 307 381 308 376 307 379 b 292 463 307 390 294 453 b 279 481 290 471 288 475 b 165 411 236 479 197 436 b 46 321 124 381 82 360 b 43 300 42 314 43 307 z "},"K":{"ha":890,"x_min":0,"x_max":0,"o":"m 42 -36 l 232 -36 b 331 -15 253 -33 329 -40 l 346 261 b 350 271 346 263 349 269 b 364 256 356 271 363 258 b 444 107 378 233 432 129 b 488 3 458 81 479 36 l 504 3 b 599 13 536 3 567 11 l 836 22 b 844 32 840 22 844 26 l 844 35 l 746 138 b 726 167 743 149 733 157 l 593 339 b 531 410 568 358 553 389 l 531 411 b 536 428 531 418 532 422 l 731 738 b 765 794 733 757 756 779 l 824 883 b 847 925 831 894 847 910 b 844 936 847 928 849 935 b 824 939 840 936 826 939 l 531 939 l 483 932 b 471 917 482 932 472 918 l 319 618 l 356 929 l 356 933 b 346 944 356 939 354 940 l 315 944 b 222 939 306 944 232 939 b 151 942 217 939 158 940 l 149 942 b 131 939 143 940 131 939 l 126 932 l 42 76 z "},"L":{"ha":669,"x_min":0,"x_max":0,"o":"m 42 544 b 69 79 42 389 47 235 l 79 36 b 86 22 79 36 83 26 b 89 15 86 19 89 15 l 125 15 b 224 36 126 15 196 31 b 271 49 239 40 254 46 b 507 89 349 64 428 75 b 575 107 532 93 551 103 b 618 124 588 110 610 108 l 628 238 l 628 375 b 618 397 628 381 626 393 l 597 397 b 426 363 539 397 482 375 b 343 342 400 357 372 342 l 343 450 l 319 858 b 310 914 319 861 313 900 b 285 944 307 929 300 942 b 253 950 276 947 253 950 l 54 929 b 49 919 51 929 49 919 b 42 544 51 796 42 669 z "},"M":{"ha":1313,"x_min":0,"x_max":0,"o":"m 44 6 l 47 3 l 69 3 b 219 6 85 4 206 6 b 300 3 228 6 292 4 l 308 3 b 318 6 311 3 318 1 l 322 31 l 322 369 l 329 367 b 481 251 378 322 425 288 l 485 251 b 565 314 522 251 546 286 l 758 529 l 867 53 b 885 15 868 42 875 22 l 918 15 b 1196 25 1011 15 1103 24 b 1267 28 1217 25 1265 26 l 1269 31 b 1271 43 1271 32 1271 40 b 1269 58 1271 46 1271 57 b 1257 97 1269 63 1258 94 b 1243 190 1251 126 1244 163 l 1153 547 b 1121 643 1151 551 1131 618 b 1115 658 1121 646 1117 656 l 1042 813 b 961 917 1031 835 985 913 b 946 918 958 917 949 918 b 854 879 913 918 881 897 l 796 840 b 706 772 768 819 736 790 l 538 636 l 519 618 l 515 618 b 507 628 514 619 508 625 l 485 656 b 399 738 460 686 431 717 l 224 904 b 135 951 201 925 165 951 b 118 950 132 951 121 950 b 106 924 110 947 107 929 b 85 797 100 892 85 803 l 42 299 l 42 236 b 44 6 42 158 46 82 z "},"N":{"ha":939,"x_min":0,"x_max":0,"o":"m 614 119 l 619 117 b 693 65 646 97 661 85 b 829 0 735 38 785 22 b 858 -12 839 -4 846 -12 b 885 8 874 -12 885 -7 b 896 344 888 58 896 294 b 897 583 897 361 897 528 b 896 757 897 625 897 747 l 885 892 b 817 936 881 932 851 936 l 813 936 b 710 919 799 932 725 922 b 665 917 701 919 672 917 b 647 904 660 915 651 910 b 640 818 640 872 640 850 l 640 424 b 410 658 575 494 488 571 b 275 818 389 682 294 794 b 238 861 265 836 251 849 b 100 957 201 901 160 957 l 90 957 l 88 949 l 42 264 l 42 175 b 47 49 42 157 46 68 b 53 40 47 49 51 40 l 288 40 b 294 43 288 40 293 42 b 296 46 294 44 296 46 b 294 53 296 46 294 51 b 296 58 294 54 294 57 l 318 308 b 321 329 318 311 321 328 b 325 332 322 331 324 332 b 336 322 328 332 336 325 l 429 256 b 460 233 438 253 454 239 b 533 185 485 218 511 204 z "},"O":{"ha":1050,"x_min":0,"x_max":0,"o":"m 176 97 b 214 74 192 90 200 82 b 425 31 275 39 357 31 b 667 71 507 31 590 43 b 693 83 676 75 682 82 l 764 117 b 842 178 776 128 833 176 b 1008 581 958 286 1008 422 b 963 782 1008 649 990 719 b 928 840 953 800 935 819 b 614 960 846 928 732 960 b 533 957 585 960 567 960 b 407 939 493 953 450 935 b 42 411 151 890 42 660 b 106 167 42 347 51 218 z m 326 463 b 429 658 326 546 358 613 b 521 696 457 676 488 696 l 525 696 b 543 689 526 696 540 689 b 571 686 546 689 568 686 b 614 665 589 683 600 674 b 694 533 663 636 694 594 b 468 299 694 404 599 299 b 326 463 367 299 326 374 z "},"P":{"ha":818,"x_min":0,"x_max":0,"o":"m 42 -4 l 44 -6 b 79 -7 46 -6 71 -7 b 285 0 147 -7 217 -4 b 351 8 299 0 344 -4 b 360 69 361 26 360 50 b 350 249 360 129 350 189 b 351 258 350 250 349 258 b 765 585 550 304 721 357 b 776 694 772 622 776 656 b 688 896 776 786 758 839 b 589 932 665 913 617 924 b 574 936 588 933 576 935 b 349 949 500 943 422 949 l 325 949 b 236 936 315 942 253 940 b 207 929 229 933 210 929 b 103 917 174 925 136 929 l 100 914 l 42 114 z m 328 474 b 321 636 319 532 321 578 l 321 724 b 331 736 322 728 326 732 b 443 738 368 735 406 738 b 532 664 485 738 532 708 b 518 613 532 646 524 629 b 378 486 494 544 439 511 b 336 471 364 482 349 471 b 328 474 332 471 329 471 z "},"Q":{"ha":1072,"x_min":0,"x_max":0,"o":"m 697 25 b 853 -54 742 -4 799 -54 b 865 -44 863 -54 860 -53 l 888 -19 b 969 63 903 -4 961 53 l 1004 90 b 1029 115 1007 94 1026 111 b 1031 121 1029 117 1031 121 b 982 160 1031 140 994 151 l 932 194 l 925 201 l 925 204 b 1010 479 975 288 1010 382 b 969 683 1010 557 994 610 b 967 689 969 685 967 689 l 932 746 b 906 779 925 758 913 767 l 846 838 b 719 901 806 863 765 886 b 657 919 701 907 674 908 b 553 936 642 924 568 935 l 521 936 b 429 926 488 936 461 931 b 307 896 386 919 346 919 b 256 861 301 892 267 867 b 250 854 256 860 250 854 b 164 785 221 832 188 813 b 42 482 90 697 42 600 b 115 232 42 396 57 301 l 124 222 b 225 113 157 183 185 149 b 446 -1 285 60 364 10 l 510 -1 b 606 3 538 -1 576 -3 b 692 25 628 6 672 25 z m 349 493 b 524 675 349 592 425 675 b 606 664 551 675 583 668 b 692 533 661 642 692 590 b 603 336 692 457 660 386 b 533 318 583 324 557 318 b 349 493 439 318 349 394 z "},"R":{"ha":872,"x_min":0,"x_max":0,"o":"m 47 -4 b 54 -14 49 -7 50 -11 l 76 -14 b 164 -4 106 -14 135 -7 b 313 8 186 -3 290 6 b 342 17 318 8 338 11 l 342 51 b 324 208 342 106 333 156 b 322 219 324 213 322 215 l 322 229 l 325 229 b 372 156 331 221 367 167 b 407 113 381 144 404 126 b 442 78 413 108 438 83 b 508 8 457 63 490 14 b 543 6 522 4 528 6 b 821 28 636 6 728 24 b 826 39 824 29 826 35 l 826 40 l 546 468 l 546 472 l 549 475 b 692 514 597 483 646 496 b 744 549 707 526 728 538 b 831 676 786 572 824 629 l 831 717 b 549 1006 831 897 728 1006 b 114 924 403 1006 253 969 b 72 907 100 919 90 906 l 47 889 b 44 838 47 888 46 853 l 44 810 b 42 671 44 796 42 685 l 42 589 b 47 -4 42 390 44 193 z m 283 735 b 285 772 283 742 285 767 b 290 775 286 772 289 775 b 404 800 328 785 369 788 b 435 801 408 800 429 801 b 533 718 490 801 533 782 b 394 571 533 644 458 592 b 324 563 369 561 353 563 b 297 564 318 563 300 563 l 293 567 b 285 699 293 568 286 661 b 283 735 285 701 283 726 z "},"S":{"ha":739,"x_min":0,"x_max":0,"o":"m 42 -4 l 446 -22 b 454 -10 446 -19 454 -14 b 476 25 458 -6 475 18 b 525 225 514 92 525 144 b 458 422 525 294 500 364 b 375 561 432 458 375 513 b 385 585 375 571 379 579 l 431 629 b 483 661 450 638 465 651 b 697 785 524 685 697 746 l 697 788 b 689 838 696 792 689 833 b 683 901 688 844 683 896 l 675 932 b 640 939 671 933 647 939 b 581 946 628 942 586 946 b 315 872 499 949 390 913 b 107 549 200 811 107 682 b 153 438 107 521 126 457 b 228 268 188 392 228 329 b 129 110 228 199 171 157 b 42 6 118 93 56 21 z "},"T":{"ha":833,"x_min":0,"x_max":0,"o":"m 244 232 l 244 17 b 246 -14 244 15 244 -7 b 258 -29 247 -19 251 -29 l 297 -29 b 429 -10 324 -25 410 -14 b 471 -7 433 -10 465 -7 b 540 6 490 -6 539 4 l 553 17 l 553 353 b 549 514 547 406 549 460 l 549 594 b 556 681 550 619 554 679 l 558 683 b 571 685 558 683 568 685 b 678 681 607 685 642 681 b 742 683 703 681 713 681 b 764 715 760 690 761 697 b 789 896 769 751 788 878 b 792 932 789 897 792 924 l 792 942 b 767 949 788 943 771 949 b 719 954 763 950 725 954 b 714 956 718 954 715 956 b 638 967 688 963 667 967 l 344 967 b 67 936 251 961 157 958 b 42 919 64 935 42 925 l 42 731 l 50 653 b 60 642 50 651 58 644 l 63 642 b 264 668 129 642 194 668 l 268 668 b 272 629 272 656 272 642 b 271 607 272 624 271 608 z "},"U":{"ha":961,"x_min":0,"x_max":0,"o":"m 354 21 b 515 1 407 11 463 1 b 882 368 714 1 832 199 b 894 419 885 379 894 415 l 919 618 l 919 686 b 903 953 919 746 917 892 b 835 956 879 957 860 956 b 675 946 782 956 728 946 b 588 949 646 946 618 949 l 568 949 l 563 943 l 563 935 b 576 686 563 878 576 744 b 531 358 576 574 561 468 b 442 260 519 318 489 260 b 393 286 419 260 407 271 b 344 407 358 324 344 356 b 349 475 344 432 344 450 l 399 926 l 399 947 b 379 983 399 963 399 981 b 342 990 371 985 344 990 l 300 990 b 250 983 296 990 254 983 b 117 974 206 981 160 989 l 114 972 l 99 926 b 67 693 96 918 75 732 b 42 457 50 615 42 538 b 172 100 42 303 68 217 b 200 75 182 86 189 82 b 282 43 224 60 256 53 b 354 21 293 39 353 22 z "},"V":{"ha":1038,"x_min":0,"x_max":0,"o":"m 288 142 b 292 135 289 140 292 135 b 294 125 292 133 294 126 b 349 6 314 75 324 50 b 369 -18 353 -1 361 -18 b 396 -4 381 -18 389 -14 l 596 283 b 633 329 606 288 628 322 b 642 340 633 332 640 339 l 854 640 b 889 689 857 653 881 681 b 996 854 908 718 996 826 b 821 889 996 885 838 886 b 772 897 817 889 776 897 b 733 899 769 899 743 899 b 696 897 728 899 701 899 b 647 849 668 890 668 861 l 572 731 b 560 711 569 722 564 719 b 503 619 547 692 507 628 b 439 503 493 603 449 522 b 432 492 439 501 438 492 l 431 492 l 364 872 b 326 896 361 892 344 896 b 90 904 290 896 125 903 b 67 906 89 904 74 906 b 44 904 64 906 49 904 b 43 885 40 900 43 889 b 56 832 43 865 47 850 z "},"W":{"ha":1283,"x_min":0,"x_max":0,"o":"m 42 892 l 42 810 b 58 599 44 761 56 613 l 143 11 b 169 -14 144 -3 156 -14 b 242 43 206 -14 221 19 b 418 225 297 106 354 169 b 482 283 422 238 468 283 l 718 144 b 844 65 763 118 800 94 b 1004 -6 878 42 964 -6 b 1017 -4 1007 -6 1015 -6 l 1021 -1 l 1242 838 l 1242 857 b 922 883 1135 861 1031 879 l 914 883 b 904 879 911 883 904 885 l 871 628 l 871 614 l 828 393 b 825 390 828 392 826 390 b 731 475 815 390 743 463 b 689 515 726 479 693 513 b 617 576 682 524 624 571 b 522 675 601 590 536 658 b 457 715 501 678 485 715 b 418 703 446 715 425 714 b 329 549 388 653 357 599 l 326 549 l 314 924 b 272 946 313 946 289 946 l 269 946 b 83 918 210 946 139 929 b 42 892 68 913 51 906 z "},"X":{"ha":1150,"x_min":0,"x_max":0,"o":"m 93 18 b 260 -15 93 -14 226 -15 l 388 -15 b 407 4 396 -12 400 -4 l 486 128 b 489 135 486 129 488 133 b 535 199 497 147 529 193 l 543 208 l 546 208 b 553 201 547 207 553 203 b 654 74 585 157 618 118 b 683 36 668 60 669 49 b 750 35 693 36 740 35 b 958 46 819 35 889 43 b 1019 51 976 46 1001 44 b 1039 78 1029 56 1039 67 b 1025 113 1039 90 1033 100 l 958 206 b 808 388 938 233 831 361 b 786 418 800 393 786 406 b 956 646 786 418 786 418 b 1064 789 994 692 1032 738 b 1108 882 1078 811 1108 853 b 1006 924 1108 921 1029 926 l 869 940 l 850 940 b 790 894 810 940 817 915 l 614 646 l 611 646 b 560 719 594 657 567 707 l 540 747 b 440 860 514 786 478 831 b 435 865 440 861 436 864 b 378 911 415 890 408 910 b 279 914 368 911 289 913 b 208 921 272 914 215 921 l 46 921 l 42 917 b 90 822 42 917 76 850 b 138 744 103 796 119 765 l 265 594 b 383 432 299 539 344 481 l 383 425 z "},"Y":{"ha":1071,"x_min":0,"x_max":0,"o":"m 406 42 l 410 42 l 419 51 l 543 225 b 575 265 557 236 565 253 l 690 413 b 693 419 690 413 693 418 b 917 715 913 707 915 715 b 949 757 921 719 946 753 b 1017 865 953 765 1000 842 b 1029 904 1022 876 1029 892 l 1029 907 b 894 946 1010 940 924 943 b 818 951 886 946 825 951 l 707 951 b 642 892 672 958 656 915 l 617 843 l 575 779 b 501 685 558 756 507 689 l 492 675 b 489 681 492 676 490 679 b 463 754 485 692 468 743 l 367 936 b 346 949 363 947 358 949 b 110 950 265 949 188 961 b 64 936 90 946 85 939 l 51 936 b 42 911 43 933 42 919 b 115 713 42 844 83 768 l 276 435 l 296 386 l 81 83 l 68 71 b 71 68 68 69 71 69 z "},"Z":{"ha":935,"x_min":0,"x_max":0,"o":"m 381 8 b 696 -15 486 8 590 -15 l 757 -15 b 769 -6 761 -14 768 -8 l 785 210 b 786 225 785 211 786 222 b 754 263 786 253 779 263 b 746 261 753 263 746 261 b 676 256 739 261 685 256 l 592 256 b 503 251 561 256 533 251 l 503 256 b 506 261 503 257 501 257 l 638 469 b 674 528 640 475 665 514 b 721 604 689 551 713 575 l 889 868 b 893 878 893 871 893 872 b 872 919 893 892 883 910 b 806 933 853 922 829 932 b 718 936 790 935 728 936 l 269 936 b 203 929 261 935 214 929 l 126 929 b 110 928 121 929 110 928 l 107 918 b 106 871 107 913 106 881 b 124 636 106 793 108 714 b 128 624 125 633 125 626 l 171 624 b 199 631 172 624 194 631 b 297 636 231 635 264 632 b 306 640 300 636 304 639 b 379 646 318 642 367 646 b 456 647 403 647 431 647 l 56 35 b 42 1 46 24 42 14 b 63 -12 42 -11 53 -12 b 149 -3 75 -12 135 -11 b 381 8 225 7 303 8 z "},"_":{"ha":782,"x_min":0,"x_max":0,"o":"m 42 14 l 49 10 b 121 6 49 10 99 7 l 135 6 b 740 1 326 3 535 0 l 740 15 l 725 108 b 721 113 725 108 722 111 b 701 119 717 114 703 119 b 671 122 699 121 676 122 b 540 124 660 122 571 124 b 42 110 150 126 42 121 z "},"a":{"ha":908,"x_min":0,"x_max":0,"o":"m 42 49 b 256 -50 42 -53 185 -50 b 492 26 342 -50 419 -14 b 532 46 506 33 517 46 l 538 46 b 550 -8 539 38 547 0 b 560 -35 551 -14 556 -28 l 571 -35 b 863 -28 668 -35 765 -28 b 867 -19 867 -28 867 -22 l 867 -15 b 808 246 853 75 833 160 b 772 336 799 281 785 304 b 685 501 761 361 697 478 b 460 728 632 597 549 669 b 342 793 431 747 379 793 l 336 793 b 321 776 333 790 322 779 b 317 771 319 775 317 771 b 322 761 317 768 322 761 b 294 742 307 758 303 754 b 189 547 258 683 208 615 l 189 528 b 361 436 190 519 361 451 b 342 419 361 429 347 422 b 269 363 331 410 279 369 b 42 49 175 286 42 179 z m 358 150 b 460 246 358 178 436 246 b 439 158 464 258 500 171 l 374 144 l 371 144 b 358 150 367 144 358 144 z "},"b":{"ha":828,"x_min":0,"x_max":0,"o":"m 42 -8 b 107 -32 42 -37 90 -32 b 349 -19 186 -32 269 -26 b 742 138 511 -4 650 -19 b 786 292 768 185 786 238 b 453 531 786 464 597 531 b 374 525 426 531 401 525 l 374 531 l 431 767 b 444 856 433 774 442 836 l 444 871 b 396 911 444 897 421 907 b 343 917 382 913 344 917 l 140 917 l 136 911 l 64 413 z m 333 160 l 354 307 l 381 307 b 489 256 411 307 489 308 b 463 211 489 240 478 219 l 410 179 b 336 158 386 175 356 165 z "},"c":{"ha":843,"x_min":0,"x_max":0,"o":"m 42 283 b 135 93 42 206 69 138 b 535 -7 250 17 397 -7 b 594 -3 560 -7 571 -7 b 801 64 631 4 801 50 b 724 292 801 90 735 292 b 658 278 701 292 682 281 b 642 278 657 278 643 279 b 535 268 606 275 571 268 l 496 268 b 447 285 485 276 458 281 b 358 390 411 299 358 347 b 493 482 358 454 439 481 b 607 482 510 483 590 483 l 611 486 l 611 706 l 607 710 b 489 719 567 714 529 719 b 290 668 404 719 360 703 b 42 283 135 590 42 461 z "},"d":{"ha":901,"x_min":0,"x_max":0,"o":"m 410 1 b 474 4 418 1 464 3 b 497 4 474 4 492 4 b 718 43 572 10 642 39 l 726 54 l 853 840 b 858 918 850 868 860 890 b 851 940 857 924 860 936 b 760 983 824 958 792 971 b 694 993 750 983 704 992 b 638 999 674 996 657 993 l 586 996 l 585 990 b 582 968 583 988 582 971 b 581 928 582 961 581 933 l 557 750 b 556 729 556 746 556 732 l 557 706 b 497 711 538 704 518 710 b 418 710 471 710 444 711 b 58 479 265 699 113 638 b 44 307 40 425 42 363 b 200 54 51 200 103 103 b 260 31 204 51 251 33 b 363 7 288 19 329 6 b 410 1 379 4 396 8 z m 288 364 b 388 442 283 421 340 438 b 519 422 411 443 517 447 l 518 418 b 500 250 508 369 497 303 l 494 250 b 415 265 468 249 439 260 l 403 267 b 288 364 343 276 293 288 z "},"e":{"ha":839,"x_min":0,"x_max":0,"o":"m 42 349 b 471 -8 42 81 257 -8 b 651 31 532 -8 597 8 b 661 50 660 36 661 43 l 661 61 b 657 186 661 81 658 165 b 647 194 653 193 651 194 b 594 179 618 194 617 185 b 510 174 568 174 533 174 b 453 178 497 174 467 172 b 325 257 413 189 349 222 l 299 299 l 299 301 b 543 322 382 301 463 308 b 797 529 661 343 797 371 b 622 765 797 658 739 739 b 576 771 608 768 590 765 b 511 774 565 772 519 774 l 510 774 b 189 663 394 774 274 739 b 42 349 83 569 42 499 z m 319 458 b 490 594 319 518 436 594 b 550 546 513 594 550 572 b 446 464 550 499 485 476 l 436 461 l 428 461 b 331 446 399 457 360 446 b 319 458 325 446 319 451 z "},"f":{"ha":585,"x_min":0,"x_max":0,"o":"m 42 24 b 51 10 42 19 46 11 b 261 -11 58 8 233 -11 b 283 -11 264 -11 279 -11 b 299 28 294 -4 299 14 l 304 494 l 315 499 l 403 499 b 418 513 408 499 417 511 b 429 554 419 519 429 547 b 446 635 436 576 450 610 b 414 656 444 650 425 649 l 300 656 b 289 681 292 656 290 675 b 378 769 281 739 325 769 b 486 761 414 769 450 761 b 518 772 494 761 515 758 l 542 943 b 540 968 543 953 542 957 b 513 992 538 983 529 992 b 504 992 511 992 506 992 b 69 792 153 1036 107 900 b 61 767 67 783 64 775 b 42 28 25 686 56 181 b 42 24 42 28 42 25 z "},"g":{"ha":860,"x_min":0,"x_max":0,"o":"m 150 -329 b 332 -342 213 -342 274 -342 b 349 -342 338 -342 343 -342 b 529 -326 413 -342 469 -337 b 713 -144 624 -307 746 -271 b 478 0 686 -46 561 6 b 472 6 474 1 474 4 b 472 8 472 6 472 8 l 476 68 b 490 71 476 71 488 71 b 535 68 506 71 519 68 b 738 128 614 68 686 81 b 804 386 813 194 835 272 b 718 539 789 444 760 489 b 713 544 714 540 713 544 b 713 553 713 546 713 551 b 729 592 715 558 726 586 b 749 633 731 596 746 629 b 782 743 763 661 790 708 b 704 768 774 771 724 767 b 690 768 704 768 694 768 b 676 768 689 768 678 768 b 669 763 672 767 671 765 b 644 713 664 750 644 715 b 617 643 642 710 624 660 b 604 614 614 635 615 614 b 600 615 603 614 600 615 b 549 633 583 619 565 628 b 451 646 517 642 483 646 b 447 646 450 646 449 646 b 108 332 254 646 43 567 b 358 96 142 208 229 129 b 371 88 361 96 369 92 b 371 86 371 88 371 86 b 357 3 368 58 364 29 b 282 -18 354 -6 299 -12 b 239 -39 267 -22 254 -36 l 151 -87 b 132 -99 143 -96 143 -90 b 99 -126 119 -106 110 -115 b 47 -249 64 -162 29 -182 b 125 -321 57 -285 88 -311 b 150 -329 140 -325 136 -321 z m 331 -175 b 329 -174 329 -174 329 -174 b 436 -115 350 -154 404 -115 b 469 -137 444 -115 467 -128 b 375 -189 478 -171 396 -189 b 331 -175 367 -189 333 -187 z m 354 329 b 481 472 339 397 425 472 b 522 461 488 472 515 472 b 529 439 525 458 526 442 b 563 381 540 417 554 408 b 446 278 582 300 494 278 b 354 329 422 278 365 292 z "},"h":{"ha":864,"x_min":0,"x_max":0,"o":"m 526 -6 l 538 -12 b 561 -12 539 -12 556 -12 b 769 0 631 -12 701 -4 b 779 10 774 1 778 6 b 817 231 790 83 807 158 b 822 338 817 236 821 310 b 822 349 822 339 822 344 b 810 499 822 399 818 450 b 692 665 796 590 782 639 b 656 665 686 665 661 665 b 465 629 592 665 528 647 b 444 624 458 628 451 625 b 361 586 424 619 371 586 l 361 615 l 382 853 b 382 856 382 853 382 854 b 324 953 382 904 371 938 b 289 953 318 953 294 953 b 99 924 224 953 163 933 b 61 918 92 922 65 928 b 43 583 57 868 44 635 b 42 478 43 582 42 508 b 43 331 42 444 43 342 b 46 0 43 232 46 0 l 54 -8 b 118 -10 57 -8 101 -10 b 339 0 192 -10 265 -6 b 358 57 356 11 358 39 b 354 93 358 71 354 81 b 354 106 354 97 354 106 l 369 347 b 431 410 371 378 397 410 b 549 228 532 410 549 307 b 526 32 549 163 536 93 z "},"i":{"ha":463,"x_min":0,"x_max":0,"o":"m 42 88 l 42 49 b 100 21 42 25 83 21 b 332 24 176 21 254 25 b 351 46 342 25 351 35 l 351 178 l 394 596 b 404 643 396 613 404 626 b 394 665 404 653 403 660 b 257 685 351 682 303 685 b 157 681 219 685 199 683 b 114 672 144 674 128 672 l 111 657 z m 213 829 b 285 818 224 826 274 818 b 329 817 288 817 318 817 b 372 818 335 817 365 817 b 421 864 399 824 421 833 b 385 924 421 890 403 907 b 382 926 383 925 383 925 b 354 938 368 928 365 932 b 292 953 350 940 293 953 b 158 935 240 953 206 947 b 138 917 150 933 140 921 b 117 879 133 911 117 892 b 213 829 117 842 193 844 z "},"j":{"ha":422,"x_min":0,"x_max":0,"o":"m -111 -356 b -100 -354 -96 -357 -115 -354 b -50 -356 -97 -354 -61 -356 b 161 -294 25 -356 100 -336 b 200 -267 172 -286 192 -279 b 249 -174 224 -240 240 -207 b 282 -47 257 -143 281 -54 b 306 75 285 -33 304 67 l 335 590 b 335 597 335 592 335 596 b 335 606 335 600 335 606 b 332 654 335 613 333 646 b 290 672 326 669 304 672 l 125 672 b 107 657 122 669 110 656 b 76 644 97 661 76 651 l 56 265 b 56 263 56 265 56 263 b 53 193 54 242 53 193 b 40 96 51 179 42 111 b -92 -93 22 -87 7 -93 l -126 -100 b -132 -136 -128 -110 -129 -125 b -139 -332 -133 -165 -137 -303 b -139 -340 -139 -332 -139 -339 b -111 -356 -139 -354 -122 -354 z m 86 890 b 268 803 86 824 226 803 b 379 886 322 803 379 825 b 317 950 379 928 357 946 b 199 963 299 953 217 961 b 108 932 163 964 132 960 b 86 890 97 919 86 907 z "},"k":{"ha":875,"x_min":0,"x_max":0,"o":"m 42 833 b 57 65 53 192 57 79 b 57 64 57 64 57 64 b 63 19 57 51 61 19 l 75 14 l 94 14 b 346 26 179 14 261 26 l 351 32 l 351 61 l 319 257 l 319 274 b 390 221 343 265 374 233 b 396 217 392 219 394 217 b 528 74 443 172 482 118 b 596 35 546 54 574 47 b 604 26 597 35 604 26 b 611 25 604 26 608 25 b 667 44 629 25 649 36 b 833 121 693 56 810 108 l 833 122 b 774 194 833 144 788 181 b 700 264 767 199 707 257 l 661 297 b 575 383 651 306 585 374 l 549 407 b 515 432 539 415 525 422 l 515 433 b 539 482 518 442 535 475 l 629 629 b 658 672 635 643 651 657 b 742 779 686 706 715 744 l 742 785 b 700 800 742 804 711 800 b 558 800 679 801 579 801 b 518 804 540 804 532 804 b 485 800 513 804 489 804 l 324 638 l 306 617 b 304 631 304 621 304 629 l 304 643 b 317 881 304 678 314 846 l 322 919 l 322 925 b 319 932 322 928 322 931 l 60 942 b 49 914 46 935 50 926 b 42 833 47 906 42 842 z "},"l":{"ha":433,"x_min":0,"x_max":0,"o":"m 42 47 b 247 8 43 11 81 10 b 332 19 260 10 318 17 b 356 54 347 21 353 42 b 356 56 356 54 356 56 b 358 281 356 89 358 246 l 358 310 b 363 615 360 401 363 614 l 392 964 l 392 969 b 376 986 392 976 383 985 b 106 992 324 993 263 990 b 78 938 90 978 81 958 z "},"m":{"ha":1118,"x_min":0,"x_max":0,"o":"m 686 396 b 694 374 692 396 694 378 l 744 32 b 769 -12 747 21 750 -12 l 853 -12 l 1056 6 b 1076 14 1063 6 1072 6 l 1076 94 b 1064 264 1075 119 1067 239 b 1019 472 1058 296 1028 442 b 975 615 1017 485 985 583 b 861 758 956 672 919 736 l 838 758 b 710 708 781 758 757 729 b 685 697 707 706 689 699 b 624 660 667 686 644 671 l 618 656 b 493 558 574 626 533 592 l 489 558 b 456 578 476 558 465 571 b 407 613 446 583 411 610 b 350 644 386 626 369 631 b 293 672 333 658 310 664 b 136 733 247 694 189 733 b 114 732 133 733 118 732 b 101 724 110 732 101 729 b 72 556 90 675 76 606 l 46 240 b 42 88 47 190 42 138 l 42 28 b 79 19 49 19 72 19 b 81 19 79 19 81 19 b 150 17 83 19 131 18 l 153 17 b 200 14 157 17 196 14 l 293 14 b 307 22 296 14 307 18 l 307 53 l 276 343 l 276 364 b 361 324 294 364 344 335 b 485 256 393 304 450 256 l 489 256 b 522 264 501 256 515 256 l 658 381 b 686 396 668 385 676 396 z "},"n":{"ha":896,"x_min":0,"x_max":0,"o":"m 665 -10 b 764 -25 699 -17 728 -25 l 767 -25 b 792 -12 776 -25 790 -25 l 842 667 b 854 719 844 674 853 713 l 854 722 b 810 738 854 736 815 738 l 665 738 b 572 719 644 738 590 732 b 553 681 560 711 556 696 l 553 678 b 536 536 549 646 536 547 b 524 313 532 501 525 344 l 519 313 l 371 467 b 367 469 367 464 367 468 b 308 542 347 493 328 519 b 282 571 307 544 285 569 b 165 714 243 618 211 671 b 110 721 154 725 122 721 b 74 719 101 721 75 719 b 47 718 67 719 47 718 l 43 697 l 43 329 b 42 276 43 321 42 285 l 42 64 b 43 19 42 60 43 28 b 56 -7 44 6 43 -3 l 81 -7 b 304 6 154 -7 231 0 l 307 8 b 308 22 307 11 308 21 l 308 235 b 311 238 308 236 311 238 b 318 235 313 238 317 236 b 665 -10 432 150 543 57 z "},"o":{"ha":851,"x_min":0,"x_max":0,"o":"m 42 297 b 236 4 42 172 101 33 b 326 -3 264 -3 297 -3 b 565 46 411 -3 488 14 b 622 78 572 58 610 72 b 636 90 624 86 628 89 l 678 129 b 699 150 681 140 693 143 b 738 197 714 167 725 179 b 810 461 788 274 810 372 b 661 674 810 571 754 628 b 615 685 642 674 632 683 b 582 690 606 686 592 686 b 497 694 549 693 529 694 b 439 682 478 694 460 690 b 428 679 438 682 429 679 b 299 658 390 675 331 678 b 289 653 297 658 290 653 b 247 643 275 647 263 650 b 92 500 178 614 129 567 b 42 297 57 438 42 369 z m 318 329 b 514 413 318 468 450 508 b 522 376 519 403 522 381 l 522 374 b 397 260 522 321 446 260 b 318 329 350 260 318 278 z "},"p":{"ha":806,"x_min":0,"x_max":0,"o":"m 42 -215 b 54 -251 42 -225 42 -249 b 97 -254 69 -254 83 -254 b 268 -236 156 -254 211 -243 b 331 -207 286 -235 325 -231 b 340 -74 340 -162 339 -118 b 343 68 342 -31 343 68 l 346 71 b 764 385 528 74 764 167 b 625 665 764 483 735 632 b 431 693 560 686 501 693 b 126 649 326 693 226 667 b 121 644 125 649 122 646 b 111 624 114 642 113 628 l 96 515 l 42 -208 b 42 -215 42 -210 42 -214 z m 346 308 b 346 346 346 314 346 340 b 360 449 346 360 354 432 b 386 458 367 453 379 457 b 506 378 456 458 506 476 b 361 301 506 300 394 301 b 346 308 354 301 347 300 z "},"q":{"ha":835,"x_min":0,"x_max":0,"o":"m 396 -251 b 411 -281 396 -264 401 -274 b 436 -282 415 -281 432 -282 b 461 -281 443 -282 461 -281 b 538 -272 474 -281 526 -274 b 685 -229 563 -260 671 -247 b 703 -187 693 -219 701 -201 l 793 588 b 793 589 793 588 793 589 b 721 642 793 622 746 638 b 669 649 717 643 679 647 b 532 654 625 651 579 654 b 429 644 499 654 463 642 b 93 444 288 615 167 574 b 42 267 61 389 42 331 b 111 82 42 208 71 126 b 164 40 128 64 146 56 b 174 35 165 39 172 35 b 343 4 229 7 281 4 b 414 10 367 4 392 6 b 450 22 426 13 436 22 b 451 14 450 21 451 15 b 447 -1 450 11 449 0 b 414 -131 443 -14 417 -118 b 396 -251 406 -168 396 -212 z m 357 349 b 471 424 357 397 435 424 b 486 422 475 424 485 424 l 490 419 b 486 401 489 417 486 404 b 483 311 486 388 483 325 b 454 290 482 296 467 290 b 414 293 442 290 421 290 b 357 349 394 300 357 325 z "},"r":{"ha":707,"x_min":0,"x_max":0,"o":"m 42 500 b 42 431 42 481 42 433 l 71 79 b 71 78 71 79 71 79 b 92 26 72 64 76 33 b 142 26 100 26 133 26 b 192 26 154 26 189 26 b 256 29 197 26 249 29 b 329 76 306 31 321 24 b 329 86 329 76 329 83 b 329 96 329 89 329 96 l 303 328 b 303 353 303 329 303 347 b 367 431 303 399 311 431 b 506 407 414 431 458 407 b 519 408 507 407 517 408 b 551 465 526 413 544 453 b 599 554 558 479 592 542 b 665 663 608 567 665 654 b 543 726 665 688 565 726 l 454 726 b 361 706 429 715 389 715 b 319 690 347 701 335 690 b 290 724 303 690 304 715 b 208 732 268 736 231 732 b 163 732 201 732 168 732 b 132 731 149 726 149 731 b 54 697 113 728 65 714 b 42 500 42 631 42 568 z "},"s":{"ha":717,"x_min":0,"x_max":0,"o":"m 63 4 b 278 -3 133 -4 208 -3 b 458 0 338 -3 399 -3 b 479 6 461 0 475 3 l 508 35 l 521 50 b 608 243 575 111 608 151 b 493 449 608 326 549 392 b 481 479 489 457 481 469 l 482 483 b 517 513 490 494 506 507 b 675 590 540 525 675 574 l 675 593 b 603 724 658 642 636 685 b 585 736 597 731 593 735 b 519 739 558 738 543 739 b 313 665 444 739 374 706 b 236 593 296 654 263 632 b 210 482 213 560 210 521 b 292 244 210 396 292 335 b 139 100 292 164 194 136 b 67 44 113 83 92 63 b 42 19 56 38 42 33 b 63 4 42 8 56 7 z "},"t":{"ha":706,"x_min":0,"x_max":0,"o":"m 286 42 b 342 32 304 44 322 35 b 406 26 361 31 386 26 b 631 88 485 26 567 42 b 661 124 640 96 654 117 l 661 142 b 628 272 656 161 632 253 b 619 335 626 279 619 328 b 604 357 619 340 615 357 l 572 357 b 458 325 553 342 483 325 b 419 363 432 325 426 342 l 419 388 b 444 528 419 435 429 483 b 472 542 449 535 471 542 b 649 554 528 553 594 554 b 651 557 650 554 651 557 b 656 572 651 558 654 569 b 664 683 656 588 663 665 l 664 706 b 515 690 611 706 565 697 b 501 689 511 690 506 689 b 488 690 500 689 490 690 l 488 700 b 511 774 488 703 504 754 b 543 858 515 788 538 846 l 543 879 b 507 894 543 886 514 893 b 479 896 501 894 482 896 b 443 897 478 896 453 897 b 294 885 393 897 344 890 b 256 879 281 883 269 885 b 174 692 224 821 200 753 b 169 683 174 689 171 685 l 128 676 b 49 654 115 675 51 660 b 42 551 43 614 42 588 l 42 528 l 46 525 b 61 524 46 525 57 524 b 122 531 82 524 97 525 l 122 515 b 97 324 108 453 97 388 b 286 42 97 172 158 99 z "},"u":{"ha":846,"x_min":0,"x_max":0,"o":"m 42 279 b 265 29 42 128 107 29 b 522 142 375 29 442 68 b 540 156 528 146 535 156 b 578 61 549 156 556 71 b 633 53 597 54 613 54 b 721 50 643 53 713 50 l 776 50 b 803 94 799 50 801 79 b 804 217 803 113 804 199 b 794 657 804 363 801 511 b 792 675 794 660 792 672 l 786 679 l 596 692 b 567 694 583 694 576 694 b 549 671 551 694 550 683 l 549 668 b 546 551 549 650 546 568 b 514 399 544 506 535 439 l 479 332 b 364 275 457 289 393 268 b 340 404 328 297 340 371 b 397 642 340 488 382 557 l 397 657 b 388 660 397 657 390 660 b 332 668 376 661 336 668 l 208 676 b 153 686 190 679 172 686 b 121 644 132 686 128 660 b 106 610 117 636 107 611 b 89 557 103 601 90 564 b 71 490 85 546 74 499 b 50 383 68 474 54 399 b 44 332 50 378 46 342 b 42 279 43 321 42 283 z "},"v":{"ha":897,"x_min":0,"x_max":0,"o":"m 367 -1 b 400 -11 376 -8 389 -11 b 450 25 418 -11 440 14 l 485 64 b 490 74 485 65 490 72 l 588 190 l 597 200 b 700 343 633 244 671 293 b 726 383 708 357 715 372 l 786 489 b 794 507 788 501 790 496 l 829 575 b 853 633 839 594 842 617 b 856 639 853 635 856 639 b 853 656 856 642 853 653 b 676 676 810 681 719 676 b 557 663 638 676 592 679 b 539 636 547 657 543 644 b 525 607 539 633 526 610 b 479 496 518 590 485 513 b 429 382 478 482 436 382 b 428 383 428 382 428 383 l 421 397 b 350 664 399 488 375 575 b 318 700 344 683 340 696 b 267 701 301 701 283 701 b 175 694 235 701 204 694 l 60 694 b 44 688 58 694 49 689 l 43 685 b 42 675 43 683 42 676 b 51 642 42 661 47 654 b 117 454 72 578 89 515 l 124 442 b 207 272 135 415 193 297 b 281 139 228 226 257 182 b 318 69 293 115 304 92 b 367 -1 333 46 353 24 z "},"w":{"ha":1217,"x_min":0,"x_max":0,"o":"m 524 246 b 539 240 531 246 532 244 b 632 163 575 217 603 193 l 717 74 b 807 -4 746 44 776 21 b 818 -12 811 -8 813 -11 b 853 -17 832 -17 839 -17 b 901 25 879 -17 890 1 l 1169 586 b 1175 640 1175 600 1175 625 l 1175 642 b 1171 644 1174 642 1172 644 b 1144 650 1168 646 1150 650 b 1122 650 1143 651 1125 650 b 1011 657 1085 653 1049 657 b 922 653 976 657 958 657 b 864 618 896 643 874 650 l 794 369 b 792 363 794 368 793 363 l 790 363 b 726 443 790 363 735 429 l 611 564 b 542 588 593 583 567 588 b 385 456 485 588 422 506 l 375 442 b 369 432 375 440 371 433 l 367 432 b 364 438 367 433 364 436 l 310 658 b 301 674 308 665 307 671 l 54 668 b 42 640 42 664 42 653 b 46 610 42 629 43 622 b 63 518 49 588 61 524 b 89 426 67 501 85 436 l 215 69 b 264 18 232 33 224 18 b 281 19 265 18 278 19 b 315 32 292 25 304 24 b 381 104 338 50 363 85 b 519 246 424 154 469 203 z "},"x":{"ha":932,"x_min":0,"x_max":0,"o":"m 88 61 b 111 42 88 50 101 43 l 336 1 l 354 1 b 369 21 361 1 368 17 b 439 125 379 38 428 110 b 456 142 439 128 449 142 l 458 142 l 501 93 b 506 90 503 92 504 90 b 517 82 506 89 515 82 b 576 26 535 64 551 38 l 596 26 b 824 64 674 26 746 58 b 843 68 826 65 840 67 b 864 88 853 69 864 78 b 814 176 864 119 832 151 l 764 249 b 708 317 753 257 708 304 l 708 321 b 803 464 738 369 775 414 b 808 475 804 465 808 474 l 818 481 b 890 619 843 511 890 575 b 832 671 890 656 858 658 b 824 674 831 671 825 672 b 699 682 782 678 740 682 l 676 682 b 654 664 667 676 657 676 l 622 633 l 544 547 l 539 544 b 528 556 539 544 531 551 l 517 569 b 511 579 515 571 511 578 b 490 601 508 581 493 599 b 450 653 475 619 469 640 l 281 653 b 243 650 276 653 246 651 b 51 642 179 647 114 651 b 42 628 47 639 42 633 l 238 381 b 269 349 240 376 265 351 b 297 315 274 344 294 321 b 294 311 297 314 294 311 b 221 246 264 297 243 272 l 217 240 b 154 158 199 218 156 161 l 149 147 l 89 68 b 88 61 88 68 88 63 z "},"y":{"ha":917,"x_min":0,"x_max":0,"o":"m 42 -58 l 69 -62 l 386 -68 b 394 -62 390 -65 392 -65 b 494 79 431 -17 463 32 b 531 128 506 93 515 117 l 585 206 b 586 211 585 206 586 210 b 728 411 635 276 682 344 b 750 447 732 424 743 435 b 826 558 775 483 797 524 b 875 622 832 565 875 611 b 811 656 875 653 832 647 b 656 671 760 664 708 671 l 628 671 b 590 653 613 667 601 663 b 569 636 579 646 585 640 l 483 550 b 472 538 482 546 478 538 b 386 644 454 538 424 640 l 206 668 l 175 668 b 96 664 147 668 125 668 l 90 663 b 64 658 86 661 68 658 b 58 646 60 657 58 650 b 69 613 58 635 64 622 b 174 458 101 558 139 508 b 219 397 186 442 214 417 b 274 326 228 388 265 336 b 308 279 279 318 308 288 l 308 278 b 233 194 283 249 261 219 b 231 188 233 193 231 188 b 61 -28 169 118 115 49 b 42 -58 57 -33 42 -47 z "},"z":{"ha":817,"x_min":0,"x_max":0,"o":"m 543 -3 l 663 -11 l 665 -11 b 686 -8 668 -10 683 -10 b 693 3 690 -6 694 -1 l 692 21 b 685 65 690 35 686 51 l 685 69 l 686 201 l 683 229 b 668 244 683 231 674 243 b 581 250 642 250 604 249 l 564 250 b 514 247 558 249 521 249 b 511 250 514 247 511 249 l 511 253 l 515 261 b 671 501 564 343 618 424 b 703 550 672 507 701 544 b 713 568 706 554 711 561 b 744 608 718 574 740 601 b 774 671 754 619 775 654 l 774 682 b 750 693 767 689 757 689 b 574 707 692 694 633 707 b 399 703 515 707 458 703 b 174 713 324 703 250 713 l 133 713 b 99 708 131 713 106 710 b 72 667 74 707 71 694 l 82 463 b 104 444 83 453 96 444 l 228 444 b 365 454 249 446 344 451 l 390 450 b 339 396 392 435 353 408 b 303 357 326 383 317 369 b 294 350 301 356 296 350 b 217 261 265 321 240 293 b 111 124 182 217 151 167 b 43 26 99 107 40 58 b 56 8 43 19 49 8 b 92 3 61 7 86 3 l 247 3 b 533 -3 342 3 439 3 z "},"":{"ha":1063,"x_min":0,"x_max":0,"o":"m 531 333 b 550 292 542 326 546 303 l 622 22 b 807 -11 631 -7 781 -8 b 925 -17 828 -12 910 -15 b 957 -17 926 -17 949 -17 b 988 -17 965 -17 988 -17 b 1021 -3 993 -15 1021 -15 b 1004 13 1021 6 1011 11 b 943 119 989 51 964 83 b 772 413 889 219 832 315 b 756 440 769 418 758 438 l 649 667 b 468 936 590 757 538 853 b 429 974 458 946 432 974 l 424 978 b 382 981 422 978 393 981 b 375 981 381 981 376 981 b 363 974 368 981 365 982 l 104 282 b 99 263 104 276 103 268 b 42 19 71 186 42 101 b 47 -1 42 11 42 7 b 88 -1 54 -1 82 -1 b 321 13 167 -1 243 14 b 333 18 321 13 333 14 l 394 336 l 397 339 b 406 339 397 339 404 339 b 531 333 447 339 489 333 z m 429 657 b 432 660 429 657 432 660 b 433 661 432 660 433 661 b 435 660 433 661 435 660 b 458 615 439 654 454 622 b 474 511 449 606 524 511 b 400 510 463 511 411 510 b 429 657 400 560 411 610 z m 511 1072 b 503 1085 511 1078 508 1083 b 400 1222 469 1131 436 1176 b 397 1229 400 1225 399 1226 b 374 1232 393 1229 376 1232 l 369 1232 b 343 1225 360 1232 350 1226 b 279 1193 326 1221 279 1217 b 307 1142 279 1174 297 1154 b 308 1142 307 1142 308 1142 l 381 1067 b 413 1057 390 1058 400 1057 b 511 1072 415 1057 511 1057 z "},"":{"ha":1063,"x_min":0,"x_max":0,"o":"m 531 333 b 550 292 542 326 546 303 l 622 22 b 807 -11 631 -7 781 -8 b 925 -17 828 -12 910 -15 b 957 -17 926 -17 949 -17 b 988 -17 965 -17 988 -17 b 1021 -3 993 -15 1021 -15 b 1004 13 1021 6 1011 11 b 943 119 989 51 964 83 b 772 413 889 219 832 315 b 756 440 769 418 758 438 l 649 667 b 468 936 590 757 538 853 b 429 974 458 946 432 974 l 424 978 b 382 981 422 978 393 981 b 375 981 381 981 376 981 b 363 974 368 981 365 982 l 104 282 b 99 263 104 276 103 268 b 42 19 71 186 42 101 b 47 -1 42 11 42 7 b 88 -1 54 -1 82 -1 b 321 13 167 -1 243 14 b 333 18 321 13 333 14 l 394 336 l 397 339 b 406 339 397 339 404 339 b 531 333 447 339 489 333 z m 429 657 b 432 660 429 657 432 660 b 433 661 432 660 433 661 b 435 660 433 661 435 660 b 458 615 439 654 454 622 b 474 511 449 606 524 511 b 400 510 463 511 411 510 b 429 657 400 560 411 610 z m 279 1072 b 378 1057 279 1057 375 1057 b 410 1067 390 1057 400 1058 l 482 1142 b 483 1142 482 1142 483 1142 b 511 1193 493 1154 511 1174 b 447 1225 511 1217 464 1221 b 421 1232 440 1226 431 1232 l 417 1232 b 393 1229 414 1232 397 1229 b 390 1222 392 1226 390 1225 b 288 1085 354 1176 321 1131 b 279 1072 282 1083 279 1078 z "},"":{"ha":1063,"x_min":0,"x_max":0,"o":"m 531 333 b 550 292 542 326 546 303 l 622 22 b 807 -11 631 -7 781 -8 b 925 -17 828 -12 910 -15 b 957 -17 926 -17 949 -17 b 988 -17 965 -17 988 -17 b 1021 -3 993 -15 1021 -15 b 1004 13 1021 6 1011 11 b 943 119 989 51 964 83 b 772 413 889 219 832 315 b 756 440 769 418 758 438 l 649 667 b 468 936 590 757 538 853 b 429 974 458 946 432 974 l 424 978 b 382 981 422 978 393 981 b 375 981 381 981 376 981 b 363 974 368 981 365 982 l 104 282 b 99 263 104 276 103 268 b 42 19 71 186 42 101 b 47 -1 42 11 42 7 b 88 -1 54 -1 82 -1 b 321 13 167 -1 243 14 b 333 18 321 13 333 14 l 394 336 l 397 339 b 406 339 397 339 404 339 b 531 333 447 339 489 333 z m 429 657 b 432 660 429 657 432 660 b 433 661 432 660 433 661 b 435 660 433 661 435 660 b 458 615 439 654 454 622 b 474 511 449 606 524 511 b 400 510 463 511 411 510 b 429 657 400 560 411 610 z m 232 1069 b 251 1057 232 1057 242 1057 b 261 1057 254 1057 258 1057 b 267 1057 264 1057 264 1057 b 374 1072 300 1057 353 1057 b 392 1114 381 1076 379 1111 b 400 1110 393 1114 399 1111 b 469 1069 422 1096 446 1078 b 490 1065 476 1065 483 1065 b 560 1069 514 1065 535 1069 b 576 1079 564 1071 576 1074 b 511 1164 576 1100 525 1149 b 483 1190 506 1168 488 1188 b 463 1206 471 1194 472 1201 b 460 1207 461 1206 461 1207 b 379 1232 433 1221 410 1232 b 350 1229 368 1232 363 1232 b 313 1183 342 1224 318 1190 b 232 1072 285 1147 258 1110 z "},"":{"ha":1063,"x_min":0,"x_max":0,"o":"m 531 333 b 550 292 542 326 546 303 l 622 22 b 807 -11 631 -7 781 -8 b 925 -17 828 -12 910 -15 b 957 -17 926 -17 949 -17 b 988 -17 965 -17 988 -17 b 1021 -3 993 -15 1021 -15 b 1004 13 1021 6 1011 11 b 943 119 989 51 964 83 b 772 413 889 219 832 315 b 756 440 769 418 758 438 l 649 667 b 468 936 590 757 538 853 b 429 974 458 946 432 974 l 424 978 b 382 981 422 978 393 981 b 375 981 381 981 376 981 b 363 974 368 981 365 982 l 104 282 b 99 263 104 276 103 268 b 42 19 71 186 42 101 b 47 -1 42 11 42 7 b 88 -1 54 -1 82 -1 b 321 13 167 -1 243 14 b 333 18 321 13 333 14 l 394 336 l 397 339 b 406 339 397 339 404 339 b 531 333 447 339 489 333 z m 429 657 b 432 660 429 657 432 660 b 433 661 432 660 433 661 b 435 660 433 661 435 660 b 458 615 439 654 454 622 b 474 511 449 606 524 511 b 400 510 463 511 411 510 b 429 657 400 560 411 610 z m 339 1124 b 450 1076 369 1092 407 1076 b 592 1182 522 1076 556 1121 b 594 1190 593 1185 594 1188 b 567 1214 594 1208 578 1208 b 561 1221 567 1214 563 1219 b 485 1240 539 1235 511 1240 b 424 1204 460 1240 450 1204 b 354 1235 397 1204 381 1231 b 340 1239 350 1236 344 1235 l 324 1239 b 282 1235 311 1239 296 1236 b 183 1132 244 1225 183 1175 b 206 1121 183 1121 196 1125 b 247 1103 219 1117 233 1110 b 279 1092 258 1099 268 1093 b 293 1090 279 1092 289 1090 b 307 1092 296 1090 306 1092 b 324 1113 315 1094 318 1106 b 335 1124 326 1115 333 1124 z "},"":{"ha":1063,"x_min":0,"x_max":0,"o":"m 531 333 b 550 292 542 326 546 303 l 622 22 b 807 -11 631 -7 781 -8 b 925 -17 828 -12 910 -15 b 957 -17 926 -17 949 -17 b 988 -17 965 -17 988 -17 b 1021 -3 993 -15 1021 -15 b 1004 13 1021 6 1011 11 b 943 119 989 51 964 83 b 772 413 889 219 832 315 b 756 440 769 418 758 438 l 649 667 b 468 936 590 757 538 853 b 429 974 458 946 432 974 l 424 978 b 382 981 422 978 393 981 b 375 981 381 981 376 981 b 363 974 368 981 365 982 l 104 282 b 99 263 104 276 103 268 b 42 19 71 186 42 101 b 47 -1 42 11 42 7 b 88 -1 54 -1 82 -1 b 321 13 167 -1 243 14 b 333 18 321 13 333 14 l 394 336 l 397 339 b 406 339 397 339 404 339 b 531 333 447 339 489 333 z m 429 657 b 432 660 429 657 432 660 b 433 661 432 660 433 661 b 435 660 433 661 435 660 b 458 615 439 654 454 622 b 474 511 449 606 524 511 b 400 510 463 511 411 510 b 429 657 400 560 411 610 z m 486 1067 b 522 1063 490 1065 517 1064 l 524 1063 b 546 1069 531 1063 543 1067 b 586 1147 574 1088 586 1114 b 531 1204 586 1186 569 1204 b 422 1129 486 1204 422 1183 b 486 1067 422 1094 456 1075 z m 253 1076 b 286 1075 264 1075 274 1075 b 358 1147 314 1075 358 1119 b 286 1196 358 1186 319 1196 l 274 1196 b 249 1186 267 1189 256 1188 b 208 1136 226 1179 208 1158 b 250 1078 208 1108 229 1093 b 253 1076 251 1078 251 1076 z "},"":{"ha":1063,"x_min":0,"x_max":0,"o":"m 531 333 b 550 292 542 326 546 303 l 622 22 b 807 -11 631 -7 781 -8 b 925 -17 828 -12 910 -15 b 957 -17 926 -17 949 -17 b 988 -17 965 -17 988 -17 b 1021 -3 993 -15 1021 -15 b 1004 13 1021 6 1011 11 b 943 119 989 51 964 83 b 772 413 889 219 832 315 b 756 440 769 418 758 438 l 649 667 b 468 936 590 757 538 853 b 429 974 458 946 432 974 l 424 978 b 382 981 422 978 393 981 b 375 981 381 981 376 981 b 363 974 368 981 365 982 l 104 282 b 99 263 104 276 103 268 b 42 19 71 186 42 101 b 47 -1 42 11 42 7 b 88 -1 54 -1 82 -1 b 321 13 167 -1 243 14 b 333 18 321 13 333 14 l 394 336 l 397 339 b 406 339 397 339 404 339 b 531 333 447 339 489 333 z m 429 657 b 432 660 429 657 432 660 b 433 661 432 660 433 661 b 435 660 433 661 435 660 b 458 615 439 654 454 622 b 474 511 449 606 524 511 b 400 510 463 511 411 510 b 429 657 400 560 411 610 z m 263 1175 b 394 1069 263 1097 346 1069 l 397 1069 b 429 1071 403 1069 424 1071 b 458 1081 438 1079 449 1076 b 536 1213 492 1099 536 1163 b 429 1308 536 1274 469 1308 b 354 1300 406 1308 378 1308 b 263 1175 311 1285 263 1239 z m 367 1192 b 393 1222 367 1213 378 1222 l 403 1222 b 421 1190 413 1218 421 1206 b 393 1158 421 1172 407 1158 b 367 1192 376 1158 367 1172 z "},"":{"ha":1297,"x_min":0,"x_max":0,"o":"m 671 -25 b 779 -35 707 -31 743 -31 l 1072 -35 b 1214 -25 1119 -31 1167 -31 l 1217 -22 b 1224 18 1224 -11 1224 11 l 1224 118 b 1221 136 1224 121 1221 133 l 1211 225 l 1208 229 l 1186 229 b 911 222 1094 229 1003 222 l 875 222 b 856 313 871 224 856 303 b 1074 363 856 331 1050 347 b 1090 388 1083 368 1088 376 b 1093 474 1092 400 1093 460 l 1093 475 b 1063 565 1093 507 1100 554 l 1035 565 b 861 546 976 565 919 554 l 858 546 b 853 550 856 546 854 546 l 853 572 b 849 651 851 581 849 643 l 849 653 b 865 664 849 660 860 664 b 1149 689 957 679 1057 683 l 1189 696 b 1256 711 1199 697 1256 700 b 1240 810 1256 744 1240 776 l 1240 975 l 594 936 b 414 667 525 853 472 757 l 307 440 b 290 413 304 438 293 418 b 119 119 231 315 174 219 b 42 -3 106 94 42 19 b 75 -17 42 -15 69 -15 l 256 -11 b 440 22 282 -8 432 -7 l 513 292 b 532 333 517 303 521 326 b 621 338 561 333 590 336 l 640 94 l 658 0 b 671 -25 654 -11 664 -21 z m 589 511 b 569 518 588 511 569 511 l 569 521 b 604 615 574 535 600 601 l 644 724 l 626 510 b 589 511 610 510 593 511 z "},"":{"ha":917,"x_min":0,"x_max":0,"o":"m 326 -258 b 383 -342 349 -285 363 -314 b 403 -346 386 -347 399 -346 b 485 -299 421 -346 469 -308 b 522 -269 486 -296 514 -276 b 532 -260 528 -267 526 -261 b 590 -161 560 -233 590 -203 b 558 -112 590 -139 581 -121 b 521 -103 553 -111 521 -103 l 521 -101 l 532 -7 l 532 -6 b 868 260 671 36 786 140 b 875 281 872 267 875 274 l 875 286 b 838 333 867 299 846 319 b 792 400 832 339 796 393 l 779 415 b 738 454 768 428 749 439 l 710 454 l 651 396 b 604 354 633 386 621 369 b 381 225 553 310 447 225 b 265 343 311 225 265 276 b 483 632 265 481 353 597 b 538 644 499 635 536 644 l 632 644 l 636 672 l 636 796 b 633 939 636 818 633 918 b 592 958 631 964 613 957 b 564 963 589 958 567 963 l 525 963 l 468 953 b 424 936 456 944 438 940 b 338 899 396 926 364 914 b 42 356 144 782 42 582 b 256 -12 42 213 106 36 b 385 -26 297 -26 342 -26 l 400 -26 b 396 -49 399 -36 396 -47 l 385 -135 b 383 -146 382 -139 383 -142 b 389 -164 383 -153 383 -156 l 419 -178 l 421 -179 b 432 -189 424 -182 432 -186 b 383 -229 432 -204 394 -224 b 326 -254 371 -235 326 -233 z "},"":{"ha":718,"x_min":0,"x_max":0,"o":"m 92 -19 b 200 -29 128 -25 164 -25 l 493 -29 b 635 -19 540 -25 588 -25 b 638 -17 635 -19 638 -17 b 644 24 644 -6 644 17 b 644 74 644 26 644 60 b 644 124 644 81 644 117 b 642 142 644 126 642 139 b 632 231 640 154 633 218 l 629 235 b 607 235 628 235 614 235 b 332 228 515 235 424 228 b 296 228 326 228 300 228 b 276 318 292 229 276 308 b 494 368 276 336 471 353 b 511 393 504 374 508 382 b 514 479 513 406 514 465 b 514 481 514 479 514 481 b 483 571 514 513 521 560 b 456 571 478 571 460 571 b 282 551 397 571 340 560 b 279 551 282 551 279 551 b 274 556 276 551 275 551 b 274 578 274 560 274 574 b 269 657 272 586 269 649 b 269 658 269 657 269 658 b 286 669 269 665 281 669 b 569 694 378 685 478 689 b 610 701 575 696 604 700 b 676 717 619 703 676 706 b 661 815 676 750 661 782 l 661 981 l 560 981 l 174 946 b 136 939 164 940 146 942 b 89 929 122 936 89 931 l 82 924 l 42 444 l 42 349 l 61 100 l 79 6 b 92 -19 75 -6 85 -15 z m 475 1050 b 467 1063 475 1056 472 1061 b 364 1200 433 1108 400 1154 b 361 1207 364 1203 363 1204 b 338 1210 357 1207 340 1210 l 333 1210 b 307 1203 324 1210 314 1204 b 243 1171 290 1199 243 1194 b 271 1119 243 1151 261 1132 b 272 1119 271 1119 272 1119 l 344 1044 b 376 1035 354 1036 364 1035 b 475 1050 379 1035 475 1035 z "},"":{"ha":718,"x_min":0,"x_max":0,"o":"m 92 -19 b 200 -29 128 -25 164 -25 l 493 -29 b 635 -19 540 -25 588 -25 b 638 -17 635 -19 638 -17 b 644 24 644 -6 644 17 b 644 74 644 26 644 60 b 644 124 644 81 644 117 b 642 142 644 126 642 139 b 632 231 640 154 633 218 l 629 235 b 607 235 628 235 614 235 b 332 228 515 235 424 228 b 296 228 326 228 300 228 b 276 318 292 229 276 308 b 494 368 276 336 471 353 b 511 393 504 374 508 382 b 514 479 513 406 514 465 b 514 481 514 479 514 481 b 483 571 514 513 521 560 b 456 571 478 571 460 571 b 282 551 397 571 340 560 b 279 551 282 551 279 551 b 274 556 276 551 275 551 b 274 578 274 560 274 574 b 269 657 272 586 269 649 b 269 658 269 657 269 658 b 286 669 269 665 281 669 b 569 694 378 685 478 689 b 610 701 575 696 604 700 b 676 717 619 703 676 706 b 661 815 676 750 661 782 l 661 981 l 560 981 l 174 946 b 136 939 164 940 146 942 b 89 929 122 936 89 931 l 82 924 l 42 444 l 42 349 l 61 100 l 79 6 b 92 -19 75 -6 85 -15 z m 243 1050 b 342 1035 243 1035 339 1035 b 374 1044 354 1035 364 1036 l 446 1119 b 447 1119 446 1119 447 1119 b 475 1171 457 1132 475 1151 b 411 1203 475 1194 428 1199 b 385 1210 404 1204 394 1210 l 381 1210 b 357 1207 378 1210 361 1207 b 354 1200 356 1204 354 1203 b 251 1063 318 1154 285 1108 b 243 1050 246 1061 243 1056 z "},"":{"ha":718,"x_min":0,"x_max":0,"o":"m 92 -19 b 200 -29 128 -25 164 -25 l 493 -29 b 635 -19 540 -25 588 -25 b 638 -17 635 -19 638 -17 b 644 24 644 -6 644 17 b 644 74 644 26 644 60 b 644 124 644 81 644 117 b 642 142 644 126 642 139 b 632 231 640 154 633 218 l 629 235 b 607 235 628 235 614 235 b 332 228 515 235 424 228 b 296 228 326 228 300 228 b 276 318 292 229 276 308 b 494 368 276 336 471 353 b 511 393 504 374 508 382 b 514 479 513 406 514 465 b 514 481 514 479 514 481 b 483 571 514 513 521 560 b 456 571 478 571 460 571 b 282 551 397 571 340 560 b 279 551 282 551 279 551 b 274 556 276 551 275 551 b 274 578 274 560 274 574 b 269 657 272 586 269 649 b 269 658 269 657 269 658 b 286 669 269 665 281 669 b 569 694 378 685 478 689 b 610 701 575 696 604 700 b 676 717 619 703 676 706 b 661 815 676 750 661 782 l 661 981 l 560 981 l 174 946 b 136 939 164 940 146 942 b 89 929 122 936 89 931 l 82 924 l 42 444 l 42 349 l 61 100 l 79 6 b 92 -19 75 -6 85 -15 z m 196 1047 b 215 1035 196 1035 206 1035 b 225 1035 218 1035 222 1035 b 231 1035 228 1035 228 1035 b 338 1050 264 1035 317 1035 b 356 1092 344 1054 343 1089 b 364 1088 357 1092 363 1089 b 433 1047 386 1074 410 1056 b 454 1043 440 1043 447 1043 b 524 1047 478 1043 499 1047 b 540 1057 528 1049 540 1051 b 475 1142 540 1078 489 1126 b 447 1168 469 1146 451 1165 b 426 1183 435 1172 436 1179 b 424 1185 425 1183 425 1185 b 343 1210 397 1199 374 1210 b 314 1207 332 1210 326 1210 b 276 1161 306 1201 282 1168 b 196 1050 249 1125 222 1088 z "},"":{"ha":718,"x_min":0,"x_max":0,"o":"m 92 -19 b 200 -29 128 -25 164 -25 l 493 -29 b 635 -19 540 -25 588 -25 b 638 -17 635 -19 638 -17 b 644 24 644 -6 644 17 b 644 74 644 26 644 60 b 644 124 644 81 644 117 b 642 142 644 126 642 139 b 632 231 640 154 633 218 l 629 235 b 607 235 628 235 614 235 b 332 228 515 235 424 228 b 296 228 326 228 300 228 b 276 318 292 229 276 308 b 494 368 276 336 471 353 b 511 393 504 374 508 382 b 514 479 513 406 514 465 b 514 481 514 479 514 481 b 483 571 514 513 521 560 b 456 571 478 571 460 571 b 282 551 397 571 340 560 b 279 551 282 551 279 551 b 274 556 276 551 275 551 b 274 578 274 560 274 574 b 269 657 272 586 269 649 b 269 658 269 657 269 658 b 286 669 269 665 281 669 b 569 694 378 685 478 689 b 610 701 575 696 604 700 b 676 717 619 703 676 706 b 661 815 676 750 661 782 l 661 981 l 560 981 l 174 946 b 136 939 164 940 146 942 b 89 929 122 936 89 931 l 82 924 l 42 444 l 42 349 l 61 100 l 79 6 b 92 -19 75 -6 85 -15 z m 450 1044 b 486 1040 454 1043 481 1042 l 488 1040 b 510 1047 494 1040 507 1044 b 550 1125 538 1065 550 1092 b 494 1182 550 1164 533 1182 b 386 1107 450 1182 386 1161 b 450 1044 386 1072 419 1053 z m 217 1054 b 250 1053 228 1053 238 1053 b 322 1125 278 1053 322 1097 b 250 1174 322 1164 283 1174 l 238 1174 b 213 1164 231 1167 219 1165 b 172 1114 190 1157 172 1136 b 214 1056 172 1086 193 1071 b 217 1054 215 1056 215 1054 z "},"":{"ha":658,"x_min":0,"x_max":0,"o":"m 42 236 l 57 35 b 101 21 58 21 89 21 b 104 21 103 21 103 21 l 107 21 b 193 31 136 21 164 29 b 461 36 282 36 372 36 l 575 36 l 581 43 b 582 72 581 43 582 64 b 578 246 582 132 581 183 b 542 271 576 264 554 269 l 467 278 l 464 279 l 464 719 l 467 724 l 535 724 b 599 738 551 724 586 721 b 615 899 606 792 615 844 b 617 958 615 904 625 954 l 586 974 b 306 982 429 981 368 982 b 88 969 231 982 163 974 b 64 960 79 969 67 972 b 61 939 63 956 61 940 l 61 769 b 88 738 61 750 69 738 b 208 760 128 738 174 751 l 214 760 b 201 675 214 732 204 703 b 193 468 199 628 193 483 b 193 279 192 440 192 308 l 189 274 b 144 271 189 274 158 271 l 122 271 b 57 264 113 269 67 267 b 42 236 46 260 42 247 z m 447 1075 b 439 1088 447 1081 444 1086 b 336 1225 406 1133 372 1179 b 333 1232 336 1228 335 1229 b 310 1235 329 1232 313 1235 l 306 1235 b 279 1228 296 1235 286 1229 b 215 1196 263 1224 215 1219 b 243 1144 215 1176 233 1157 b 244 1144 243 1144 244 1144 l 317 1069 b 349 1060 326 1061 336 1060 b 447 1075 351 1060 447 1060 z "},"":{"ha":658,"x_min":0,"x_max":0,"o":"m 42 236 l 57 35 b 101 21 58 21 89 21 b 104 21 103 21 103 21 l 107 21 b 193 31 136 21 164 29 b 461 36 282 36 372 36 l 575 36 l 581 43 b 582 72 581 43 582 64 b 578 246 582 132 581 183 b 542 271 576 264 554 269 l 467 278 l 464 279 l 464 719 l 467 724 l 535 724 b 599 738 551 724 586 721 b 615 899 606 792 615 844 b 617 958 615 904 625 954 l 586 974 b 306 982 429 981 368 982 b 88 969 231 982 163 974 b 64 960 79 969 67 972 b 61 939 63 956 61 940 l 61 769 b 88 738 61 750 69 738 b 208 760 128 738 174 751 l 214 760 b 201 675 214 732 204 703 b 193 468 199 628 193 483 b 193 279 192 440 192 308 l 189 274 b 144 271 189 274 158 271 l 122 271 b 57 264 113 269 67 267 b 42 236 46 260 42 247 z m 215 1075 b 314 1060 215 1060 311 1060 b 346 1069 326 1060 336 1061 l 418 1144 b 419 1144 418 1144 419 1144 b 447 1196 429 1157 447 1176 b 383 1228 447 1219 400 1224 b 357 1235 376 1229 367 1235 l 353 1235 b 329 1232 350 1235 333 1232 b 326 1225 328 1229 326 1228 b 224 1088 290 1179 257 1133 b 215 1075 218 1086 215 1081 z "},"":{"ha":658,"x_min":0,"x_max":0,"o":"m 42 236 l 57 35 b 101 21 58 21 89 21 b 104 21 103 21 103 21 l 107 21 b 193 31 136 21 164 29 b 461 36 282 36 372 36 l 575 36 l 581 43 b 582 72 581 43 582 64 b 578 246 582 132 581 183 b 542 271 576 264 554 269 l 467 278 l 464 279 l 464 719 l 467 724 l 535 724 b 599 738 551 724 586 721 b 615 899 606 792 615 844 b 617 958 615 904 625 954 l 586 974 b 306 982 429 981 368 982 b 88 969 231 982 163 974 b 64 960 79 969 67 972 b 61 939 63 956 61 940 l 61 769 b 88 738 61 750 69 738 b 208 760 128 738 174 751 l 214 760 b 201 675 214 732 204 703 b 193 468 199 628 193 483 b 193 279 192 440 192 308 l 189 274 b 144 271 189 274 158 271 l 122 271 b 57 264 113 269 67 267 b 42 236 46 260 42 247 z m 168 1072 b 188 1060 168 1060 178 1060 b 197 1060 190 1060 194 1060 b 203 1060 200 1060 200 1060 b 310 1075 236 1060 289 1060 b 328 1117 317 1079 315 1114 b 336 1113 329 1117 335 1114 b 406 1072 358 1099 382 1081 b 426 1068 413 1068 419 1068 b 496 1072 450 1068 471 1072 b 513 1082 500 1074 513 1076 b 447 1167 513 1103 461 1151 b 419 1193 442 1171 424 1190 b 399 1208 407 1197 408 1204 b 396 1210 397 1208 397 1210 b 315 1235 369 1224 346 1235 b 286 1232 304 1235 299 1235 b 249 1186 278 1226 254 1193 b 168 1075 221 1150 194 1113 z "},"":{"ha":658,"x_min":0,"x_max":0,"o":"m 42 236 l 57 35 b 101 21 58 21 89 21 b 104 21 103 21 103 21 l 107 21 b 193 31 136 21 164 29 b 461 36 282 36 372 36 l 575 36 l 581 43 b 582 72 581 43 582 64 b 578 246 582 132 581 183 b 542 271 576 264 554 269 l 467 278 l 464 279 l 464 719 l 467 724 l 535 724 b 599 738 551 724 586 721 b 615 899 606 792 615 844 b 617 958 615 904 625 954 l 586 974 b 306 982 429 981 368 982 b 88 969 231 982 163 974 b 64 960 79 969 67 972 b 61 939 63 956 61 940 l 61 769 b 88 738 61 750 69 738 b 208 760 128 738 174 751 l 214 760 b 201 675 214 732 204 703 b 193 468 199 628 193 483 b 193 279 192 440 192 308 l 189 274 b 144 271 189 274 158 271 l 122 271 b 57 264 113 269 67 267 b 42 236 46 260 42 247 z m 422 1069 b 458 1065 426 1068 453 1067 l 460 1065 b 482 1072 467 1065 479 1069 b 522 1150 510 1090 522 1117 b 467 1207 522 1189 506 1207 b 358 1132 422 1207 358 1186 b 422 1069 358 1097 392 1078 z m 189 1079 b 222 1078 200 1078 210 1078 b 294 1150 250 1078 294 1122 b 222 1199 294 1189 256 1199 l 210 1199 b 185 1189 203 1192 192 1190 b 144 1139 163 1182 144 1161 b 186 1081 144 1111 165 1096 b 189 1079 188 1081 188 1079 z "},"":{"ha":1050,"x_min":0,"x_max":0,"o":"m 176 97 b 214 74 192 90 200 82 b 425 31 275 39 357 31 b 667 71 507 31 590 43 b 693 83 676 75 682 82 l 764 117 b 842 178 776 128 833 176 b 1008 581 958 286 1008 422 b 963 782 1008 649 990 719 b 928 840 953 800 935 819 b 614 960 846 928 732 960 b 533 957 585 960 567 960 b 407 939 493 953 450 935 b 42 411 151 890 42 660 b 106 167 42 347 51 218 z m 326 463 b 429 658 326 546 358 613 b 521 696 457 676 488 696 l 525 696 b 543 689 526 696 540 689 b 571 686 546 689 568 686 b 614 665 589 683 600 674 b 694 533 663 636 694 594 b 468 299 694 404 599 299 b 326 463 367 299 326 374 z m 644 1050 b 636 1063 644 1056 642 1061 b 533 1200 603 1108 569 1154 b 531 1207 533 1203 532 1204 b 507 1210 526 1207 510 1210 l 503 1210 b 476 1203 493 1210 483 1204 b 413 1171 460 1199 413 1194 b 440 1119 413 1151 431 1132 b 442 1119 440 1119 442 1119 l 514 1044 b 546 1035 524 1036 533 1035 b 644 1050 549 1035 644 1035 z "},"":{"ha":1050,"x_min":0,"x_max":0,"o":"m 176 97 b 214 74 192 90 200 82 b 425 31 275 39 357 31 b 667 71 507 31 590 43 b 693 83 676 75 682 82 l 764 117 b 842 178 776 128 833 176 b 1008 581 958 286 1008 422 b 963 782 1008 649 990 719 b 928 840 953 800 935 819 b 614 960 846 928 732 960 b 533 957 585 960 567 960 b 407 939 493 953 450 935 b 42 411 151 890 42 660 b 106 167 42 347 51 218 z m 326 463 b 429 658 326 546 358 613 b 521 696 457 676 488 696 l 525 696 b 543 689 526 696 540 689 b 571 686 546 689 568 686 b 614 665 589 683 600 674 b 694 533 663 636 694 594 b 468 299 694 404 599 299 b 326 463 367 299 326 374 z m 413 1050 b 511 1035 413 1035 508 1035 b 543 1044 524 1035 533 1036 l 615 1119 b 617 1119 615 1119 617 1119 b 644 1171 626 1132 644 1151 b 581 1203 644 1194 597 1199 b 554 1210 574 1204 564 1210 l 550 1210 b 526 1207 547 1210 531 1207 b 524 1200 525 1204 524 1203 b 421 1063 488 1154 454 1108 b 413 1050 415 1061 413 1056 z "},"":{"ha":1050,"x_min":0,"x_max":0,"o":"m 176 97 b 214 74 192 90 200 82 b 425 31 275 39 357 31 b 667 71 507 31 590 43 b 693 83 676 75 682 82 l 764 117 b 842 178 776 128 833 176 b 1008 581 958 286 1008 422 b 963 782 1008 649 990 719 b 928 840 953 800 935 819 b 614 960 846 928 732 960 b 533 957 585 960 567 960 b 407 939 493 953 450 935 b 42 411 151 890 42 660 b 106 167 42 347 51 218 z m 326 463 b 429 658 326 546 358 613 b 521 696 457 676 488 696 l 525 696 b 543 689 526 696 540 689 b 571 686 546 689 568 686 b 614 665 589 683 600 674 b 694 533 663 636 694 594 b 468 299 694 404 599 299 b 326 463 367 299 326 374 z m 365 1047 b 385 1035 365 1035 375 1035 b 394 1035 388 1035 392 1035 b 400 1035 397 1035 397 1035 b 507 1050 433 1035 486 1035 b 525 1092 514 1054 513 1089 b 533 1088 526 1092 532 1089 b 603 1047 556 1074 579 1056 b 624 1043 610 1043 617 1043 b 693 1047 647 1043 668 1047 b 710 1057 697 1049 710 1051 b 644 1142 710 1078 658 1126 b 617 1168 639 1146 621 1165 b 596 1183 604 1172 606 1179 b 593 1185 594 1183 594 1185 b 513 1210 567 1199 543 1210 b 483 1207 501 1210 496 1210 b 446 1161 475 1201 451 1168 b 365 1050 418 1125 392 1088 z "},"":{"ha":1050,"x_min":0,"x_max":0,"o":"m 176 97 b 214 74 192 90 200 82 b 425 31 275 39 357 31 b 667 71 507 31 590 43 b 693 83 676 75 682 82 l 764 117 b 842 178 776 128 833 176 b 1008 581 958 286 1008 422 b 963 782 1008 649 990 719 b 928 840 953 800 935 819 b 614 960 846 928 732 960 b 533 957 585 960 567 960 b 407 939 493 953 450 935 b 42 411 151 890 42 660 b 106 167 42 347 51 218 z m 326 463 b 429 658 326 546 358 613 b 521 696 457 676 488 696 l 525 696 b 543 689 526 696 540 689 b 571 686 546 689 568 686 b 614 665 589 683 600 674 b 694 533 663 636 694 594 b 468 299 694 404 599 299 b 326 463 367 299 326 374 z m 472 1101 b 583 1054 503 1069 540 1054 b 725 1160 656 1054 689 1099 b 728 1168 726 1163 728 1165 b 700 1192 728 1186 711 1186 b 694 1199 700 1192 696 1197 b 618 1218 672 1213 644 1218 b 557 1182 593 1218 583 1182 b 488 1213 531 1182 514 1208 b 474 1217 483 1214 478 1213 l 457 1217 b 415 1213 444 1217 429 1214 b 317 1110 378 1203 317 1153 b 339 1099 317 1099 329 1103 b 381 1081 353 1094 367 1088 b 413 1069 392 1076 401 1071 b 426 1068 413 1069 422 1068 b 440 1069 429 1068 439 1069 b 457 1090 449 1072 451 1083 b 468 1101 460 1093 467 1101 z "},"":{"ha":1050,"x_min":0,"x_max":0,"o":"m 176 97 b 214 74 192 90 200 82 b 425 31 275 39 357 31 b 667 71 507 31 590 43 b 693 83 676 75 682 82 l 764 117 b 842 178 776 128 833 176 b 1008 581 958 286 1008 422 b 963 782 1008 649 990 719 b 928 840 953 800 935 819 b 614 960 846 928 732 960 b 533 957 585 960 567 960 b 407 939 493 953 450 935 b 42 411 151 890 42 660 b 106 167 42 347 51 218 z m 326 463 b 429 658 326 546 358 613 b 521 696 457 676 488 696 l 525 696 b 543 689 526 696 540 689 b 571 686 546 689 568 686 b 614 665 589 683 600 674 b 694 533 663 636 694 594 b 468 299 694 404 599 299 b 326 463 367 299 326 374 z m 619 1044 b 656 1040 624 1043 650 1042 l 657 1040 b 679 1047 664 1040 676 1044 b 719 1125 707 1065 719 1092 b 664 1182 719 1164 703 1182 b 556 1107 619 1182 556 1161 b 619 1044 556 1072 589 1053 z m 386 1054 b 419 1053 397 1053 407 1053 b 492 1125 447 1053 492 1097 b 419 1174 492 1164 453 1174 l 407 1174 b 382 1164 400 1167 389 1165 b 342 1114 360 1157 342 1136 b 383 1056 342 1086 363 1071 b 386 1054 385 1056 385 1054 z "},"":{"ha":1050,"x_min":0,"x_max":0,"o":"m 176 97 b 214 74 192 90 200 82 b 425 31 275 39 357 31 b 667 71 507 31 590 43 b 693 83 676 75 682 82 l 764 117 b 842 178 776 128 833 176 b 1008 581 958 286 1008 422 b 963 782 1008 649 990 719 b 928 840 953 800 935 819 b 614 960 846 928 732 960 b 533 957 585 960 567 960 b 407 939 493 953 450 935 b 42 411 151 890 42 660 b 106 167 42 347 51 218 z m 326 463 b 429 658 326 546 358 613 b 521 696 457 676 488 696 l 525 696 b 543 689 526 696 540 689 b 571 686 546 689 568 686 l 572 686 l 557 654 b 456 443 524 585 486 514 b 417 347 442 411 429 379 b 397 314 413 336 404 325 b 326 463 347 340 326 397 z m 694 533 b 476 299 694 407 603 303 l 478 300 l 546 444 b 547 450 546 444 547 449 b 615 586 568 496 592 540 b 619 594 617 586 618 593 l 643 643 b 694 533 675 617 694 581 z "},"":{"ha":961,"x_min":0,"x_max":0,"o":"m 354 21 b 515 1 407 11 463 1 b 882 368 714 1 832 199 b 894 419 885 379 894 415 l 919 618 l 919 686 b 903 953 919 746 917 892 b 835 956 879 957 860 956 b 675 946 782 956 728 946 b 588 949 646 946 618 949 l 568 949 l 563 943 l 563 935 b 576 686 563 878 576 744 b 531 358 576 574 561 468 b 442 260 519 318 489 260 b 393 286 419 260 407 271 b 344 407 358 324 344 356 b 349 475 344 432 344 450 l 399 926 l 399 947 b 379 983 399 963 399 981 b 342 990 371 985 344 990 l 300 990 b 250 983 296 990 254 983 b 117 974 206 981 160 989 l 114 972 l 99 926 b 67 693 96 918 75 732 b 42 457 50 615 42 538 b 172 100 42 303 68 217 b 200 75 182 86 189 82 b 282 43 224 60 256 53 b 354 21 293 39 353 22 z m 606 1053 b 597 1065 606 1058 603 1064 b 494 1203 564 1111 531 1157 b 492 1210 494 1206 493 1207 b 468 1213 488 1210 471 1213 l 464 1213 b 438 1206 454 1213 444 1207 b 374 1174 421 1201 374 1197 b 401 1122 374 1154 392 1135 b 403 1122 401 1122 403 1122 l 475 1047 b 507 1038 485 1039 494 1038 b 606 1053 510 1038 606 1038 z "},"":{"ha":961,"x_min":0,"x_max":0,"o":"m 354 21 b 515 1 407 11 463 1 b 882 368 714 1 832 199 b 894 419 885 379 894 415 l 919 618 l 919 686 b 903 953 919 746 917 892 b 835 956 879 957 860 956 b 675 946 782 956 728 946 b 588 949 646 946 618 949 l 568 949 l 563 943 l 563 935 b 576 686 563 878 576 744 b 531 358 576 574 561 468 b 442 260 519 318 489 260 b 393 286 419 260 407 271 b 344 407 358 324 344 356 b 349 475 344 432 344 450 l 399 926 l 399 947 b 379 983 399 963 399 981 b 342 990 371 985 344 990 l 300 990 b 250 983 296 990 254 983 b 117 974 206 981 160 989 l 114 972 l 99 926 b 67 693 96 918 75 732 b 42 457 50 615 42 538 b 172 100 42 303 68 217 b 200 75 182 86 189 82 b 282 43 224 60 256 53 b 354 21 293 39 353 22 z m 374 1053 b 472 1038 374 1038 469 1038 b 504 1047 485 1038 494 1039 l 576 1122 b 578 1122 576 1122 578 1122 b 606 1174 588 1135 606 1154 b 542 1206 606 1197 558 1201 b 515 1213 535 1207 525 1213 l 511 1213 b 488 1210 508 1213 492 1210 b 485 1203 486 1207 485 1206 b 382 1065 449 1157 415 1111 b 374 1053 376 1064 374 1058 z "},"":{"ha":961,"x_min":0,"x_max":0,"o":"m 354 21 b 515 1 407 11 463 1 b 882 368 714 1 832 199 b 894 419 885 379 894 415 l 919 618 l 919 686 b 903 953 919 746 917 892 b 835 956 879 957 860 956 b 675 946 782 956 728 946 b 588 949 646 946 618 949 l 568 949 l 563 943 l 563 935 b 576 686 563 878 576 744 b 531 358 576 574 561 468 b 442 260 519 318 489 260 b 393 286 419 260 407 271 b 344 407 358 324 344 356 b 349 475 344 432 344 450 l 399 926 l 399 947 b 379 983 399 963 399 981 b 342 990 371 985 344 990 l 300 990 b 250 983 296 990 254 983 b 117 974 206 981 160 989 l 114 972 l 99 926 b 67 693 96 918 75 732 b 42 457 50 615 42 538 b 172 100 42 303 68 217 b 200 75 182 86 189 82 b 282 43 224 60 256 53 b 354 21 293 39 353 22 z m 326 1050 b 346 1038 326 1038 336 1038 b 356 1038 349 1038 353 1038 b 361 1038 358 1038 358 1038 b 468 1053 394 1038 447 1038 b 486 1094 475 1057 474 1092 b 494 1090 488 1094 493 1092 b 564 1050 517 1076 540 1058 b 585 1046 571 1046 578 1046 b 654 1050 608 1046 629 1050 b 671 1060 658 1051 671 1054 b 606 1144 671 1081 619 1129 b 578 1171 600 1149 582 1168 b 557 1186 565 1175 567 1182 b 554 1188 556 1186 556 1188 b 474 1213 528 1201 504 1213 b 444 1210 463 1213 457 1213 b 407 1164 436 1204 413 1171 b 326 1053 379 1128 353 1090 z "},"":{"ha":961,"x_min":0,"x_max":0,"o":"m 354 21 b 515 1 407 11 463 1 b 882 368 714 1 832 199 b 894 419 885 379 894 415 l 919 618 l 919 686 b 903 953 919 746 917 892 b 835 956 879 957 860 956 b 675 946 782 956 728 946 b 588 949 646 946 618 949 l 568 949 l 563 943 l 563 935 b 576 686 563 878 576 744 b 531 358 576 574 561 468 b 442 260 519 318 489 260 b 393 286 419 260 407 271 b 344 407 358 324 344 356 b 349 475 344 432 344 450 l 399 926 l 399 947 b 379 983 399 963 399 981 b 342 990 371 985 344 990 l 300 990 b 250 983 296 990 254 983 b 117 974 206 981 160 989 l 114 972 l 99 926 b 67 693 96 918 75 732 b 42 457 50 615 42 538 b 172 100 42 303 68 217 b 200 75 182 86 189 82 b 282 43 224 60 256 53 b 354 21 293 39 353 22 z m 581 1047 b 617 1043 585 1046 611 1044 l 618 1043 b 640 1050 625 1043 638 1047 b 681 1128 668 1068 681 1094 b 625 1185 681 1167 664 1185 b 517 1110 581 1185 517 1164 b 581 1047 517 1075 550 1056 z m 347 1057 b 381 1056 358 1056 368 1056 b 453 1128 408 1056 453 1100 b 381 1176 453 1167 414 1176 l 368 1176 b 343 1167 361 1169 350 1168 b 303 1117 321 1160 303 1139 b 344 1058 303 1089 324 1074 b 347 1057 346 1058 346 1057 z "},"":{"ha":989,"x_min":0,"x_max":0,"o":"m 43 410 b 57 63 43 294 39 178 b 76 6 58 54 72 6 l 111 1 l 331 1 b 389 31 358 7 389 -6 b 388 43 389 33 388 42 l 372 119 b 347 324 368 150 350 293 b 335 657 344 374 336 608 l 335 668 b 390 775 335 696 351 775 b 414 743 410 775 414 760 b 392 671 414 717 397 696 b 375 547 381 625 375 592 b 436 413 375 475 378 451 b 500 390 453 401 482 397 l 601 375 b 647 322 629 371 647 350 b 643 311 647 319 649 313 b 617 301 639 308 621 303 b 560 288 610 299 569 290 b 476 243 526 282 476 288 b 479 215 476 232 476 226 b 481 211 479 214 481 213 b 517 49 485 188 510 72 b 564 17 522 32 544 17 l 626 17 b 688 26 646 28 668 22 b 860 122 757 44 807 76 b 947 300 911 165 947 232 b 808 575 947 401 901 522 b 767 597 797 583 782 593 b 742 600 765 599 744 600 b 729 614 742 600 732 613 b 658 667 708 628 658 635 b 667 693 658 676 660 682 b 710 779 672 707 703 765 b 724 853 719 803 724 828 b 601 1003 724 926 671 981 b 517 1021 579 1010 539 1011 l 394 1028 l 392 1028 b 139 915 304 1028 199 982 b 46 571 60 825 53 686 b 44 558 46 567 44 563 b 43 410 44 536 43 433 z "},"":{"ha":908,"x_min":0,"x_max":0,"o":"m 42 49 b 256 -50 42 -53 185 -50 b 492 26 342 -50 419 -14 b 532 46 506 33 517 46 l 538 46 b 550 -8 539 38 547 0 b 560 -35 551 -14 556 -28 l 571 -35 b 863 -28 668 -35 765 -28 b 867 -19 867 -28 867 -22 l 867 -15 b 808 246 853 75 833 160 b 772 336 799 281 785 304 b 685 501 761 361 697 478 b 460 728 632 597 549 669 b 342 793 431 747 379 793 l 336 793 b 321 776 333 790 322 779 b 317 771 319 775 317 771 b 322 761 317 768 322 761 b 294 742 307 758 303 754 b 189 547 258 683 208 615 l 189 528 b 361 436 190 519 361 451 b 342 419 361 429 347 422 b 269 363 331 410 279 369 b 42 49 175 286 42 179 z m 358 150 b 460 246 358 178 436 246 b 439 158 464 258 500 171 l 374 144 l 371 144 b 358 150 367 144 358 144 z m 539 894 b 531 907 539 900 536 906 b 428 1044 497 953 464 999 b 425 1051 428 1047 426 1049 b 401 1054 421 1051 404 1054 l 397 1054 b 371 1047 388 1054 378 1049 b 307 1015 354 1043 307 1039 b 335 964 307 996 325 976 b 336 964 335 964 336 964 l 408 889 b 440 879 418 881 428 879 b 539 894 443 879 539 879 z "},"":{"ha":908,"x_min":0,"x_max":0,"o":"m 42 49 b 256 -50 42 -53 185 -50 b 492 26 342 -50 419 -14 b 532 46 506 33 517 46 l 538 46 b 550 -8 539 38 547 0 b 560 -35 551 -14 556 -28 l 571 -35 b 863 -28 668 -35 765 -28 b 867 -19 867 -28 867 -22 l 867 -15 b 808 246 853 75 833 160 b 772 336 799 281 785 304 b 685 501 761 361 697 478 b 460 728 632 597 549 669 b 342 793 431 747 379 793 l 336 793 b 321 776 333 790 322 779 b 317 771 319 775 317 771 b 322 761 317 768 322 761 b 294 742 307 758 303 754 b 189 547 258 683 208 615 l 189 528 b 361 436 190 519 361 451 b 342 419 361 429 347 422 b 269 363 331 410 279 369 b 42 49 175 286 42 179 z m 358 150 b 460 246 358 178 436 246 b 439 158 464 258 500 171 l 374 144 l 371 144 b 358 150 367 144 358 144 z m 307 894 b 406 879 307 879 403 879 b 438 889 418 879 428 881 l 510 964 b 511 964 510 964 511 964 b 539 1015 521 976 539 996 b 475 1047 539 1039 492 1043 b 449 1054 468 1049 458 1054 l 444 1054 b 421 1051 442 1054 425 1051 b 418 1044 419 1049 418 1047 b 315 907 382 999 349 953 b 307 894 310 906 307 900 z "},"":{"ha":908,"x_min":0,"x_max":0,"o":"m 42 49 b 256 -50 42 -53 185 -50 b 492 26 342 -50 419 -14 b 532 46 506 33 517 46 l 538 46 b 550 -8 539 38 547 0 b 560 -35 551 -14 556 -28 l 571 -35 b 863 -28 668 -35 765 -28 b 867 -19 867 -28 867 -22 l 867 -15 b 808 246 853 75 833 160 b 772 336 799 281 785 304 b 685 501 761 361 697 478 b 460 728 632 597 549 669 b 342 793 431 747 379 793 l 336 793 b 321 776 333 790 322 779 b 317 771 319 775 317 771 b 322 761 317 768 322 761 b 294 742 307 758 303 754 b 189 547 258 683 208 615 l 189 528 b 361 436 190 519 361 451 b 342 419 361 429 347 422 b 269 363 331 410 279 369 b 42 49 175 286 42 179 z m 358 150 b 460 246 358 178 436 246 b 439 158 464 258 500 171 l 374 144 l 371 144 b 358 150 367 144 358 144 z m 260 892 b 279 879 260 879 269 879 b 289 879 282 879 286 879 b 294 879 292 879 292 879 b 401 894 328 879 381 879 b 419 936 408 899 407 933 b 428 932 421 936 426 933 b 497 892 450 918 474 900 b 518 888 504 888 511 888 b 588 892 542 888 563 892 b 604 901 592 893 604 896 b 539 986 604 922 553 971 b 511 1013 533 990 515 1010 b 490 1028 499 1017 500 1024 b 488 1029 489 1028 489 1029 b 407 1054 461 1043 438 1054 b 378 1051 396 1054 390 1054 b 340 1006 369 1046 346 1013 b 260 894 313 969 286 932 z "},"":{"ha":908,"x_min":0,"x_max":0,"o":"m 42 49 b 256 -50 42 -53 185 -50 b 492 26 342 -50 419 -14 b 532 46 506 33 517 46 l 538 46 b 550 -8 539 38 547 0 b 560 -35 551 -14 556 -28 l 571 -35 b 863 -28 668 -35 765 -28 b 867 -19 867 -28 867 -22 l 867 -15 b 808 246 853 75 833 160 b 772 336 799 281 785 304 b 685 501 761 361 697 478 b 460 728 632 597 549 669 b 342 793 431 747 379 793 l 336 793 b 321 776 333 790 322 779 b 317 771 319 775 317 771 b 322 761 317 768 322 761 b 294 742 307 758 303 754 b 189 547 258 683 208 615 l 189 528 b 361 436 190 519 361 451 b 342 419 361 429 347 422 b 269 363 331 410 279 369 b 42 49 175 286 42 179 z m 358 150 b 460 246 358 178 436 246 b 439 158 464 258 500 171 l 374 144 l 371 144 b 358 150 367 144 358 144 z m 367 946 b 478 899 397 914 435 899 b 619 1004 550 899 583 943 b 622 1013 621 1007 622 1010 b 594 1036 622 1031 606 1031 b 589 1043 594 1036 590 1042 b 513 1063 567 1057 539 1063 b 451 1026 488 1063 478 1026 b 382 1057 425 1026 408 1053 b 368 1061 378 1058 372 1057 l 351 1061 b 310 1057 339 1061 324 1058 b 211 954 272 1047 211 997 b 233 943 211 943 224 947 b 275 925 247 939 261 932 b 307 914 286 921 296 915 b 321 913 307 914 317 913 b 335 914 324 913 333 914 b 351 935 343 917 346 928 b 363 946 354 938 361 946 z "},"":{"ha":908,"x_min":0,"x_max":0,"o":"m 42 49 b 256 -50 42 -53 185 -50 b 492 26 342 -50 419 -14 b 532 46 506 33 517 46 l 538 46 b 550 -8 539 38 547 0 b 560 -35 551 -14 556 -28 l 571 -35 b 863 -28 668 -35 765 -28 b 867 -19 867 -28 867 -22 l 867 -15 b 808 246 853 75 833 160 b 772 336 799 281 785 304 b 685 501 761 361 697 478 b 460 728 632 597 549 669 b 342 793 431 747 379 793 l 336 793 b 321 776 333 790 322 779 b 317 771 319 775 317 771 b 322 761 317 768 322 761 b 294 742 307 758 303 754 b 189 547 258 683 208 615 l 189 528 b 361 436 190 519 361 451 b 342 419 361 429 347 422 b 269 363 331 410 279 369 b 42 49 175 286 42 179 z m 358 150 b 460 246 358 178 436 246 b 439 158 464 258 500 171 l 374 144 l 371 144 b 358 150 367 144 358 144 z m 514 889 b 550 885 518 888 544 886 l 551 885 b 574 892 558 885 571 889 b 614 969 601 910 614 936 b 558 1026 614 1008 597 1026 b 450 951 514 1026 450 1006 b 514 889 450 917 483 897 z m 281 899 b 314 897 292 897 301 897 b 386 969 342 897 386 942 b 314 1018 386 1008 347 1018 l 301 1018 b 276 1008 294 1011 283 1010 b 236 958 254 1001 236 981 b 278 900 236 931 257 915 b 281 899 279 900 279 899 z "},"":{"ha":908,"x_min":0,"x_max":0,"o":"m 42 49 b 256 -50 42 -53 185 -50 b 492 26 342 -50 419 -14 b 532 46 506 33 517 46 l 538 46 b 550 -8 539 38 547 0 b 560 -35 551 -14 556 -28 l 571 -35 b 863 -28 668 -35 765 -28 b 867 -19 867 -28 867 -22 l 867 -15 b 808 246 853 75 833 160 b 772 336 799 281 785 304 b 685 501 761 361 697 478 b 460 728 632 597 549 669 b 342 793 431 747 379 793 l 336 793 b 321 776 333 790 322 779 b 317 771 319 775 317 771 b 322 761 317 768 322 761 b 294 742 307 758 303 754 b 189 547 258 683 208 615 l 189 528 b 361 436 190 519 361 451 b 342 419 361 429 347 422 b 269 363 331 410 279 369 b 42 49 175 286 42 179 z m 358 150 b 460 246 358 178 436 246 b 439 158 464 258 500 171 l 374 144 l 371 144 b 358 150 367 144 358 144 z m 290 997 b 422 892 290 919 374 892 l 425 892 b 457 893 431 892 451 893 b 486 903 465 901 476 899 b 564 1035 519 921 564 985 b 457 1131 564 1096 497 1131 b 382 1122 433 1131 406 1131 b 290 997 339 1107 290 1061 z m 394 1014 b 421 1044 394 1035 406 1044 l 431 1044 b 449 1013 440 1040 449 1028 b 421 981 449 994 435 981 b 394 1014 404 981 394 994 z "},"":{"ha":1342,"x_min":0,"x_max":0,"o":"m 42 49 b 256 -50 42 -53 185 -50 b 614 139 293 -50 583 -24 b 974 -22 657 -25 924 -22 b 1154 17 1035 -22 1100 -6 b 1164 36 1163 22 1164 29 l 1164 47 b 1160 172 1164 67 1161 151 b 1150 181 1156 179 1154 181 b 1097 165 1121 181 1119 171 b 1013 160 1071 160 1036 160 b 956 164 1000 160 969 158 b 828 243 915 175 851 208 l 801 285 l 801 288 b 1046 308 885 288 965 294 b 1300 515 1164 329 1300 357 b 1125 751 1300 644 1242 725 b 1079 757 1111 754 1093 751 b 1014 760 1068 758 1022 760 l 1013 760 b 692 649 897 760 776 725 b 626 585 667 626 644 606 b 460 728 579 640 521 688 b 342 793 431 747 379 793 l 336 793 b 321 776 333 790 322 779 b 317 771 319 775 317 771 b 322 761 317 768 322 761 b 294 742 307 758 303 754 b 189 547 258 683 208 615 l 189 528 b 361 436 190 519 361 451 b 342 419 361 429 347 422 b 269 363 331 410 279 369 b 42 49 175 286 42 179 z m 822 444 b 993 581 822 504 939 581 b 1053 532 1015 581 1053 558 b 949 450 1053 485 988 463 l 939 447 l 931 447 b 833 432 901 443 863 432 b 822 444 828 432 822 438 z m 358 150 b 460 246 358 178 436 246 b 439 158 464 258 500 171 l 374 144 l 371 144 b 358 150 367 144 358 144 z "},"":{"ha":843,"x_min":0,"x_max":0,"o":"m 289 -236 b 346 -319 311 -262 325 -292 b 365 -324 349 -325 361 -324 b 447 -276 383 -324 432 -286 b 485 -247 449 -274 476 -254 b 494 -237 490 -244 489 -239 b 553 -139 522 -211 553 -181 b 521 -90 553 -117 543 -99 b 483 -81 515 -89 483 -81 l 483 -79 l 492 -6 b 535 -7 506 -7 521 -7 b 594 -3 560 -7 571 -7 b 801 64 631 4 801 50 b 724 292 801 90 735 292 b 658 278 701 292 682 281 b 642 278 657 278 643 279 b 535 268 606 275 571 268 l 496 268 b 447 285 485 276 458 281 b 358 390 411 299 358 347 b 493 482 358 454 439 481 b 607 482 510 483 590 483 l 611 486 l 611 706 l 607 710 b 489 719 567 714 529 719 b 290 668 404 719 360 703 b 42 283 135 590 42 461 b 135 93 42 206 69 138 b 365 7 203 47 283 21 b 358 -26 363 -6 358 -24 l 347 -112 b 346 -124 344 -117 346 -119 b 351 -142 346 -131 346 -133 l 382 -156 l 383 -157 b 394 -167 386 -160 394 -164 b 346 -207 394 -182 357 -201 b 289 -232 333 -212 289 -211 z "},"":{"ha":839,"x_min":0,"x_max":0,"o":"m 42 349 b 471 -8 42 81 257 -8 b 651 31 532 -8 597 8 b 661 50 660 36 661 43 l 661 61 b 657 186 661 81 658 165 b 647 194 653 193 651 194 b 594 179 618 194 617 185 b 510 174 568 174 533 174 b 453 178 497 174 467 172 b 325 257 413 189 349 222 l 299 299 l 299 301 b 543 322 382 301 463 308 b 797 529 661 343 797 371 b 622 765 797 658 739 739 b 576 771 608 768 590 765 b 511 774 565 772 519 774 l 510 774 b 189 663 394 774 274 739 b 42 349 83 569 42 499 z m 319 458 b 490 594 319 518 436 594 b 550 546 513 594 550 572 b 446 464 550 499 485 476 l 436 461 l 428 461 b 331 446 399 457 360 446 b 319 458 325 446 319 451 z m 567 869 b 558 882 567 875 564 881 b 456 1019 525 928 492 974 b 453 1026 456 1022 454 1024 b 429 1029 449 1026 432 1029 l 425 1029 b 399 1022 415 1029 406 1024 b 335 990 382 1018 335 1014 b 363 939 335 971 353 951 b 364 939 363 939 364 939 l 436 864 b 468 854 446 856 456 854 b 567 869 471 854 567 854 z "},"":{"ha":839,"x_min":0,"x_max":0,"o":"m 42 349 b 471 -8 42 81 257 -8 b 651 31 532 -8 597 8 b 661 50 660 36 661 43 l 661 61 b 657 186 661 81 658 165 b 647 194 653 193 651 194 b 594 179 618 194 617 185 b 510 174 568 174 533 174 b 453 178 497 174 467 172 b 325 257 413 189 349 222 l 299 299 l 299 301 b 543 322 382 301 463 308 b 797 529 661 343 797 371 b 622 765 797 658 739 739 b 576 771 608 768 590 765 b 511 774 565 772 519 774 l 510 774 b 189 663 394 774 274 739 b 42 349 83 569 42 499 z m 319 458 b 490 594 319 518 436 594 b 550 546 513 594 550 572 b 446 464 550 499 485 476 l 436 461 l 428 461 b 331 446 399 457 360 446 b 319 458 325 446 319 451 z m 335 869 b 433 854 335 854 431 854 b 465 864 446 854 456 856 l 538 939 b 539 939 538 939 539 939 b 567 990 549 951 567 971 b 503 1022 567 1014 519 1018 b 476 1029 496 1024 486 1029 l 472 1029 b 449 1026 469 1029 453 1026 b 446 1019 447 1024 446 1022 b 343 882 410 974 376 928 b 335 869 338 881 335 875 z "},"":{"ha":839,"x_min":0,"x_max":0,"o":"m 42 349 b 471 -8 42 81 257 -8 b 651 31 532 -8 597 8 b 661 50 660 36 661 43 l 661 61 b 657 186 661 81 658 165 b 647 194 653 193 651 194 b 594 179 618 194 617 185 b 510 174 568 174 533 174 b 453 178 497 174 467 172 b 325 257 413 189 349 222 l 299 299 l 299 301 b 543 322 382 301 463 308 b 797 529 661 343 797 371 b 622 765 797 658 739 739 b 576 771 608 768 590 765 b 511 774 565 772 519 774 l 510 774 b 189 663 394 774 274 739 b 42 349 83 569 42 499 z m 319 458 b 490 594 319 518 436 594 b 550 546 513 594 550 572 b 446 464 550 499 485 476 l 436 461 l 428 461 b 331 446 399 457 360 446 b 319 458 325 446 319 451 z m 288 867 b 307 854 288 854 297 854 b 317 854 310 854 314 854 b 322 854 319 854 319 854 b 429 869 356 854 408 854 b 447 911 436 874 435 908 b 456 907 449 911 454 908 b 525 867 478 893 501 875 b 546 863 532 863 539 863 b 615 867 569 863 590 867 b 632 876 619 868 632 871 b 567 961 632 897 581 946 b 539 988 561 965 543 985 b 518 1003 526 992 528 999 b 515 1004 517 1003 517 1004 b 435 1029 489 1018 465 1029 b 406 1026 424 1029 418 1029 b 368 981 397 1021 374 988 b 288 869 340 944 314 907 z "},"":{"ha":839,"x_min":0,"x_max":0,"o":"m 42 349 b 471 -8 42 81 257 -8 b 651 31 532 -8 597 8 b 661 50 660 36 661 43 l 661 61 b 657 186 661 81 658 165 b 647 194 653 193 651 194 b 594 179 618 194 617 185 b 510 174 568 174 533 174 b 453 178 497 174 467 172 b 325 257 413 189 349 222 l 299 299 l 299 301 b 543 322 382 301 463 308 b 797 529 661 343 797 371 b 622 765 797 658 739 739 b 576 771 608 768 590 765 b 511 774 565 772 519 774 l 510 774 b 189 663 394 774 274 739 b 42 349 83 569 42 499 z m 319 458 b 490 594 319 518 436 594 b 550 546 513 594 550 572 b 446 464 550 499 485 476 l 436 461 l 428 461 b 331 446 399 457 360 446 b 319 458 325 446 319 451 z m 542 864 b 578 860 546 863 572 861 l 579 860 b 601 867 586 860 599 864 b 642 944 629 885 642 911 b 586 1001 642 983 625 1001 b 478 926 542 1001 478 981 b 542 864 478 892 511 872 z m 308 874 b 342 872 319 872 329 872 b 414 944 369 872 414 917 b 342 993 414 983 375 993 l 329 993 b 304 983 322 986 311 985 b 264 933 282 976 264 956 b 306 875 264 906 285 890 b 308 874 307 875 307 874 z "},"":{"ha":463,"x_min":0,"x_max":0,"o":"m 42 88 l 42 49 b 100 21 42 25 83 21 b 332 24 176 21 254 25 b 351 46 342 25 351 35 l 351 178 l 394 596 b 404 643 396 613 404 626 b 394 665 404 653 403 660 b 257 685 351 682 303 685 b 157 681 219 685 199 683 b 114 672 144 674 128 672 l 111 657 z m 378 872 b 369 885 378 878 375 883 b 267 1022 336 931 303 976 b 264 1029 267 1025 265 1026 b 240 1032 260 1029 243 1032 l 236 1032 b 210 1025 226 1032 217 1026 b 146 993 193 1021 146 1017 b 174 942 146 974 164 954 b 175 942 174 942 175 942 l 247 867 b 279 857 257 858 267 857 b 378 872 282 857 378 857 z "},"":{"ha":463,"x_min":0,"x_max":0,"o":"m 42 88 l 42 49 b 100 21 42 25 83 21 b 332 24 176 21 254 25 b 351 46 342 25 351 35 l 351 178 l 394 596 b 404 643 396 613 404 626 b 394 665 404 653 403 660 b 257 685 351 682 303 685 b 157 681 219 685 199 683 b 114 672 144 674 128 672 l 111 657 z m 146 872 b 244 857 146 857 242 857 b 276 867 257 857 267 858 l 349 942 b 350 942 349 942 350 942 b 378 993 360 954 378 974 b 314 1025 378 1017 331 1021 b 288 1032 307 1026 297 1032 l 283 1032 b 260 1029 281 1032 264 1029 b 257 1022 258 1026 257 1025 b 154 885 221 976 188 931 b 146 872 149 883 146 878 z "},"":{"ha":463,"x_min":0,"x_max":0,"o":"m 42 88 l 42 49 b 100 21 42 25 83 21 b 332 24 176 21 254 25 b 351 46 342 25 351 35 l 351 178 l 394 596 b 404 643 396 613 404 626 b 394 665 404 653 403 660 b 257 685 351 682 303 685 b 157 681 219 685 199 683 b 114 672 144 674 128 672 l 111 657 z m 99 869 b 118 857 99 857 108 857 b 128 857 121 857 125 857 b 133 857 131 857 131 857 b 240 872 167 857 219 857 b 258 914 247 876 246 911 b 267 910 260 914 265 911 b 336 869 289 896 313 878 b 357 865 343 865 350 865 b 426 869 381 865 401 869 b 443 879 431 871 443 874 b 378 964 443 900 392 949 b 350 990 372 968 354 988 b 329 1006 338 994 339 1001 b 326 1007 328 1006 328 1007 b 246 1032 300 1021 276 1032 b 217 1029 235 1032 229 1032 b 179 983 208 1024 185 990 b 99 872 151 947 125 910 z "},"":{"ha":463,"x_min":0,"x_max":0,"o":"m 42 88 l 42 49 b 100 21 42 25 83 21 b 332 24 176 21 254 25 b 351 46 342 25 351 35 l 351 178 l 394 596 b 404 643 396 613 404 626 b 394 665 404 653 403 660 b 257 685 351 682 303 685 b 157 681 219 685 199 683 b 114 672 144 674 128 672 l 111 657 z m 353 867 b 389 863 357 865 383 864 l 390 863 b 413 869 397 863 410 867 b 453 947 440 888 453 914 b 397 1004 453 986 436 1004 b 289 929 353 1004 289 983 b 353 867 289 894 322 875 z m 119 876 b 153 875 131 875 140 875 b 225 947 181 875 225 919 b 153 996 225 986 186 996 l 140 996 b 115 986 133 989 122 988 b 75 936 93 979 75 958 b 117 878 75 908 96 893 b 119 876 118 878 118 876 z "},"":{"ha":851,"x_min":0,"x_max":0,"o":"m 42 297 b 236 4 42 172 101 33 b 326 -3 264 -3 297 -3 b 565 46 411 -3 488 14 b 622 78 572 58 610 72 b 636 90 624 86 628 89 l 678 129 b 699 150 681 140 693 143 b 738 197 714 167 725 179 b 810 461 788 274 810 372 b 661 674 810 571 754 628 b 615 685 642 674 632 683 b 582 690 606 686 592 686 b 497 694 549 693 529 694 b 439 682 478 694 460 690 b 428 679 438 682 429 679 b 299 658 390 675 331 678 b 289 653 297 658 290 653 b 247 643 275 647 263 650 b 92 500 178 614 129 567 b 42 297 57 438 42 369 z m 318 329 b 514 413 318 468 450 508 b 522 376 519 403 522 381 l 522 374 b 397 260 522 321 446 260 b 318 329 350 260 318 278 z m 542 789 b 533 801 542 794 539 800 b 431 939 500 847 467 893 b 428 946 431 942 429 943 b 404 949 424 946 407 949 l 400 949 b 374 942 390 949 381 943 b 310 910 357 938 310 933 b 338 858 310 890 328 871 b 339 858 338 858 339 858 l 411 783 b 443 774 421 775 431 774 b 542 789 446 774 542 774 z "},"":{"ha":851,"x_min":0,"x_max":0,"o":"m 42 297 b 236 4 42 172 101 33 b 326 -3 264 -3 297 -3 b 565 46 411 -3 488 14 b 622 78 572 58 610 72 b 636 90 624 86 628 89 l 678 129 b 699 150 681 140 693 143 b 738 197 714 167 725 179 b 810 461 788 274 810 372 b 661 674 810 571 754 628 b 615 685 642 674 632 683 b 582 690 606 686 592 686 b 497 694 549 693 529 694 b 439 682 478 694 460 690 b 428 679 438 682 429 679 b 299 658 390 675 331 678 b 289 653 297 658 290 653 b 247 643 275 647 263 650 b 92 500 178 614 129 567 b 42 297 57 438 42 369 z m 318 329 b 514 413 318 468 450 508 b 522 376 519 403 522 381 l 522 374 b 397 260 522 321 446 260 b 318 329 350 260 318 278 z m 310 789 b 408 774 310 774 406 774 b 440 783 421 774 431 775 l 513 858 b 514 858 513 858 514 858 b 542 910 524 871 542 890 b 478 942 542 933 494 938 b 451 949 471 943 461 949 l 447 949 b 424 946 444 949 428 946 b 421 939 422 943 421 942 b 318 801 385 893 351 847 b 310 789 313 800 310 794 z "},"":{"ha":851,"x_min":0,"x_max":0,"o":"m 42 297 b 236 4 42 172 101 33 b 326 -3 264 -3 297 -3 b 565 46 411 -3 488 14 b 622 78 572 58 610 72 b 636 90 624 86 628 89 l 678 129 b 699 150 681 140 693 143 b 738 197 714 167 725 179 b 810 461 788 274 810 372 b 661 674 810 571 754 628 b 615 685 642 674 632 683 b 582 690 606 686 592 686 b 497 694 549 693 529 694 b 439 682 478 694 460 690 b 428 679 438 682 429 679 b 299 658 390 675 331 678 b 289 653 297 658 290 653 b 247 643 275 647 263 650 b 92 500 178 614 129 567 b 42 297 57 438 42 369 z m 318 329 b 514 413 318 468 450 508 b 522 376 519 403 522 381 l 522 374 b 397 260 522 321 446 260 b 318 329 350 260 318 278 z m 263 786 b 282 774 263 774 272 774 b 292 774 285 774 289 774 b 297 774 294 774 294 774 b 404 789 331 774 383 774 b 422 831 411 793 410 828 b 431 826 424 831 429 828 b 500 786 453 813 476 794 b 521 782 507 782 514 782 b 590 786 544 782 565 786 b 607 796 594 788 607 790 b 542 881 607 817 556 865 b 514 907 536 885 518 904 b 493 922 501 911 503 918 b 490 924 492 922 492 924 b 410 949 464 938 440 949 b 381 946 399 949 393 949 b 343 900 372 940 349 907 b 263 789 315 864 289 826 z "},"":{"ha":851,"x_min":0,"x_max":0,"o":"m 42 297 b 236 4 42 172 101 33 b 326 -3 264 -3 297 -3 b 565 46 411 -3 488 14 b 622 78 572 58 610 72 b 636 90 624 86 628 89 l 678 129 b 699 150 681 140 693 143 b 738 197 714 167 725 179 b 810 461 788 274 810 372 b 661 674 810 571 754 628 b 615 685 642 674 632 683 b 582 690 606 686 592 686 b 497 694 549 693 529 694 b 439 682 478 694 460 690 b 428 679 438 682 429 679 b 299 658 390 675 331 678 b 289 653 297 658 290 653 b 247 643 275 647 263 650 b 92 500 178 614 129 567 b 42 297 57 438 42 369 z m 318 329 b 514 413 318 468 450 508 b 522 376 519 403 522 381 l 522 374 b 397 260 522 321 446 260 b 318 329 350 260 318 278 z m 369 840 b 481 793 400 808 438 793 b 622 899 553 793 586 838 b 625 907 624 901 625 904 b 597 931 625 925 608 925 b 592 938 597 931 593 936 b 515 957 569 951 542 957 b 454 921 490 957 481 921 b 385 951 428 921 411 947 b 371 956 381 953 375 951 l 354 956 b 313 951 342 956 326 953 b 214 849 275 942 214 892 b 236 838 214 838 226 842 b 278 819 250 833 264 826 b 310 808 289 815 299 810 b 324 807 310 808 319 807 b 338 808 326 807 336 808 b 354 829 346 811 349 822 b 365 840 357 832 364 840 z "},"":{"ha":851,"x_min":0,"x_max":0,"o":"m 42 297 b 236 4 42 172 101 33 b 326 -3 264 -3 297 -3 b 565 46 411 -3 488 14 b 622 78 572 58 610 72 b 636 90 624 86 628 89 l 678 129 b 699 150 681 140 693 143 b 738 197 714 167 725 179 b 810 461 788 274 810 372 b 661 674 810 571 754 628 b 615 685 642 674 632 683 b 582 690 606 686 592 686 b 497 694 549 693 529 694 b 439 682 478 694 460 690 b 428 679 438 682 429 679 b 299 658 390 675 331 678 b 289 653 297 658 290 653 b 247 643 275 647 263 650 b 92 500 178 614 129 567 b 42 297 57 438 42 369 z m 318 329 b 514 413 318 468 450 508 b 522 376 519 403 522 381 l 522 374 b 397 260 522 321 446 260 b 318 329 350 260 318 278 z m 517 783 b 553 779 521 782 547 781 l 554 779 b 576 786 561 779 574 783 b 617 864 604 804 617 831 b 561 921 617 903 600 921 b 453 846 517 921 453 900 b 517 783 453 811 486 792 z m 283 793 b 317 792 294 792 304 792 b 389 864 344 792 389 836 b 317 913 389 903 350 913 l 304 913 b 279 903 297 906 286 904 b 239 853 257 896 239 875 b 281 794 239 825 260 810 b 283 793 282 794 282 793 z "},"":{"ha":851,"x_min":0,"x_max":0,"o":"m 42 297 b 236 4 42 172 101 33 b 242 3 238 3 239 3 l 233 -29 b 232 -36 233 -29 232 -35 b 271 -62 232 -58 257 -62 l 282 -62 b 306 -29 292 -57 301 -42 b 315 -3 306 -26 310 -14 l 326 -3 b 565 46 411 -3 488 14 b 622 78 572 58 610 72 b 636 90 624 86 628 89 l 678 129 b 699 150 681 140 693 143 b 738 197 714 167 725 179 b 810 461 788 274 810 372 b 661 674 810 571 754 628 b 615 685 642 674 632 683 b 582 690 606 686 592 686 l 575 690 l 596 751 b 597 756 596 753 597 756 b 563 793 597 776 578 793 b 494 694 542 793 517 747 b 439 682 476 694 458 690 b 428 679 438 682 429 679 b 299 658 390 675 331 678 b 289 653 297 658 290 653 b 247 643 275 647 263 650 b 92 500 178 614 129 567 b 42 297 57 438 42 369 z m 429 288 b 431 294 429 288 431 293 b 488 438 447 343 469 390 l 518 408 b 528 369 525 399 528 374 l 528 367 b 414 246 528 315 465 260 z m 307 318 b 388 464 307 379 339 431 b 418 486 394 468 417 486 l 419 486 b 344 286 393 419 367 351 l 333 257 b 307 318 317 268 307 288 z "},"":{"ha":846,"x_min":0,"x_max":0,"o":"m 42 279 b 265 29 42 128 107 29 b 522 142 375 29 442 68 b 540 156 528 146 535 156 b 578 61 549 156 556 71 b 633 53 597 54 613 54 b 721 50 643 53 713 50 l 776 50 b 803 94 799 50 801 79 b 804 217 803 113 804 199 b 794 657 804 363 801 511 b 792 675 794 660 792 672 l 786 679 l 596 692 b 567 694 583 694 576 694 b 549 671 551 694 550 683 l 549 668 b 546 551 549 650 546 568 b 514 399 544 506 535 439 l 479 332 b 364 275 457 289 393 268 b 340 404 328 297 340 371 b 397 642 340 488 382 557 l 397 657 b 388 660 397 657 390 660 b 332 668 376 661 336 668 l 208 676 b 153 686 190 679 172 686 b 121 644 132 686 128 660 b 106 610 117 636 107 611 b 89 557 103 601 90 564 b 71 490 85 546 74 499 b 50 383 68 474 54 399 b 44 332 50 378 46 342 b 42 279 43 321 42 283 z m 547 775 b 539 788 547 781 544 786 b 436 925 506 833 472 879 b 433 932 436 928 435 929 b 410 935 429 932 413 935 l 406 935 b 379 928 396 935 386 929 b 315 896 363 924 315 919 b 343 844 315 876 333 857 b 344 844 343 844 344 844 l 417 769 b 449 760 426 761 436 760 b 547 775 451 760 547 760 z "},"":{"ha":846,"x_min":0,"x_max":0,"o":"m 42 279 b 265 29 42 128 107 29 b 522 142 375 29 442 68 b 540 156 528 146 535 156 b 578 61 549 156 556 71 b 633 53 597 54 613 54 b 721 50 643 53 713 50 l 776 50 b 803 94 799 50 801 79 b 804 217 803 113 804 199 b 794 657 804 363 801 511 b 792 675 794 660 792 672 l 786 679 l 596 692 b 567 694 583 694 576 694 b 549 671 551 694 550 683 l 549 668 b 546 551 549 650 546 568 b 514 399 544 506 535 439 l 479 332 b 364 275 457 289 393 268 b 340 404 328 297 340 371 b 397 642 340 488 382 557 l 397 657 b 388 660 397 657 390 660 b 332 668 376 661 336 668 l 208 676 b 153 686 190 679 172 686 b 121 644 132 686 128 660 b 106 610 117 636 107 611 b 89 557 103 601 90 564 b 71 490 85 546 74 499 b 50 383 68 474 54 399 b 44 332 50 378 46 342 b 42 279 43 321 42 283 z m 315 775 b 414 760 315 760 411 760 b 446 769 426 760 436 761 l 518 844 b 519 844 518 844 519 844 b 547 896 529 857 547 876 b 483 928 547 919 500 924 b 457 935 476 929 467 935 l 453 935 b 429 932 450 935 433 932 b 426 925 428 929 426 928 b 324 788 390 879 357 833 b 315 775 318 786 315 781 z "},"":{"ha":846,"x_min":0,"x_max":0,"o":"m 42 279 b 265 29 42 128 107 29 b 522 142 375 29 442 68 b 540 156 528 146 535 156 b 578 61 549 156 556 71 b 633 53 597 54 613 54 b 721 50 643 53 713 50 l 776 50 b 803 94 799 50 801 79 b 804 217 803 113 804 199 b 794 657 804 363 801 511 b 792 675 794 660 792 672 l 786 679 l 596 692 b 567 694 583 694 576 694 b 549 671 551 694 550 683 l 549 668 b 546 551 549 650 546 568 b 514 399 544 506 535 439 l 479 332 b 364 275 457 289 393 268 b 340 404 328 297 340 371 b 397 642 340 488 382 557 l 397 657 b 388 660 397 657 390 660 b 332 668 376 661 336 668 l 208 676 b 153 686 190 679 172 686 b 121 644 132 686 128 660 b 106 610 117 636 107 611 b 89 557 103 601 90 564 b 71 490 85 546 74 499 b 50 383 68 474 54 399 b 44 332 50 378 46 342 b 42 279 43 321 42 283 z m 268 772 b 288 760 268 760 278 760 b 297 760 290 760 294 760 b 303 760 300 760 300 760 b 410 775 336 760 389 760 b 428 817 417 779 415 814 b 436 813 429 817 435 814 b 506 772 458 799 482 781 b 526 768 513 768 519 768 b 596 772 550 768 571 772 b 613 782 600 774 613 776 b 547 867 613 803 561 851 b 519 893 542 871 524 890 b 499 908 507 897 508 904 b 496 910 497 908 497 910 b 415 935 469 924 446 935 b 386 932 404 935 399 935 b 349 886 378 926 354 893 b 268 775 321 850 294 813 z "},"":{"ha":846,"x_min":0,"x_max":0,"o":"m 42 279 b 265 29 42 128 107 29 b 522 142 375 29 442 68 b 540 156 528 146 535 156 b 578 61 549 156 556 71 b 633 53 597 54 613 54 b 721 50 643 53 713 50 l 776 50 b 803 94 799 50 801 79 b 804 217 803 113 804 199 b 794 657 804 363 801 511 b 792 675 794 660 792 672 l 786 679 l 596 692 b 567 694 583 694 576 694 b 549 671 551 694 550 683 l 549 668 b 546 551 549 650 546 568 b 514 399 544 506 535 439 l 479 332 b 364 275 457 289 393 268 b 340 404 328 297 340 371 b 397 642 340 488 382 557 l 397 657 b 388 660 397 657 390 660 b 332 668 376 661 336 668 l 208 676 b 153 686 190 679 172 686 b 121 644 132 686 128 660 b 106 610 117 636 107 611 b 89 557 103 601 90 564 b 71 490 85 546 74 499 b 50 383 68 474 54 399 b 44 332 50 378 46 342 b 42 279 43 321 42 283 z m 522 769 b 558 765 526 768 553 767 l 560 765 b 582 772 567 765 579 769 b 622 850 610 790 622 817 b 567 907 622 889 606 907 b 458 832 522 907 458 886 b 522 769 458 797 492 778 z m 289 779 b 322 778 300 778 310 778 b 394 850 350 778 394 822 b 322 899 394 889 356 899 l 310 899 b 285 889 303 892 292 890 b 244 839 263 882 244 861 b 286 781 244 811 265 796 b 289 779 288 781 288 779 z "},"":{"ha":1008,"x_min":0,"x_max":0,"o":"m 42 358 l 53 242 l 147 239 b 347 -12 172 129 236 24 b 476 -26 389 -26 433 -26 l 488 -26 b 960 260 686 -26 853 103 b 967 281 964 267 967 274 l 967 286 b 929 333 958 299 938 319 b 883 400 924 339 888 393 l 871 415 b 829 454 860 428 840 439 l 801 454 l 743 396 b 696 354 725 386 713 369 b 472 225 644 310 539 225 b 385 264 435 225 404 240 l 475 264 l 481 372 l 357 368 b 365 417 358 385 361 400 l 544 417 l 578 556 l 442 556 b 575 632 478 592 522 618 b 629 644 590 635 628 644 l 724 644 l 728 672 l 728 796 b 725 939 728 818 725 918 b 683 958 722 964 704 957 b 656 963 681 958 658 963 l 617 963 l 560 953 b 515 936 547 944 529 940 b 429 899 488 926 456 914 b 161 556 296 818 204 697 l 58 556 l 44 428 l 136 419 b 133 358 133 399 133 378 z "}}}
